<?xml version="1.0" encoding="UTF-8" standalone="no"?>
<!-- Created with Inkscape (http://www.inkscape.org/) -->

<svg
   width="210mm"
   height="297mm"
   viewBox="0 0 210 297"
   version="1.1"
   id="svg1"
   inkscape:version="1.3.2 (091e20e, 2023-11-25, custom)"
   sodipodi:docname="salesplosion.svg"
   xmlns:inkscape="http://www.inkscape.org/namespaces/inkscape"
   xmlns:sodipodi="http://sodipodi.sourceforge.net/DTD/sodipodi-0.dtd"
   xmlns:xlink="http://www.w3.org/1999/xlink"
   xmlns="http://www.w3.org/2000/svg"
   xmlns:svg="http://www.w3.org/2000/svg">
  <sodipodi:namedview
     id="namedview1"
     pagecolor="#ffffff"
     bordercolor="#000000"
     borderopacity="0.25"
     inkscape:showpageshadow="2"
     inkscape:pageopacity="0.0"
     inkscape:pagecheckerboard="0"
     inkscape:deskcolor="#d1d1d1"
     inkscape:document-units="mm"
     inkscape:zoom="1.4878904"
     inkscape:cx="180.45685"
     inkscape:cy="595.13794"
     inkscape:window-width="2560"
     inkscape:window-height="1377"
     inkscape:window-x="-8"
     inkscape:window-y="-8"
     inkscape:window-maximized="1"
     inkscape:current-layer="layer1" />
  <defs
     id="defs1">
    <linearGradient
       id="linearGradient1"
       inkscape:collect="always">
      <stop
         style="stop-color:#b23900;stop-opacity:1;"
         offset="0"
         id="stop1" />
      <stop
         style="stop-color:#990000;stop-opacity:1;"
         offset="1"
         id="stop2" />
    </linearGradient>
    <radialGradient
       inkscape:collect="always"
       xlink:href="#linearGradient1"
       id="radialGradient2"
       cx="37.79166"
       cy="110.46181"
       fx="37.79166"
       fy="110.46181"
       r="38.17284"
       gradientTransform="matrix(1,0,0,1.0032015,0,-0.35364083)"
       gradientUnits="userSpaceOnUse" />
  </defs>
  <g
     inkscape:label="Layer 1"
     inkscape:groupmode="layer"
     id="layer1">
    <path
       sodipodi:type="star"
       style="fill:url(#radialGradient2);stroke:#000000;stroke-width:2.47603;stroke-dasharray:none"
       id="path1"
       inkscape:flatsided="false"
       sodipodi:sides="9"
       sodipodi:cx="38.476711"
       sodipodi:cy="110.90347"
       sodipodi:r1="29.033237"
       sodipodi:r2="37.705502"
       sodipodi:arg1="0.76653248"
       sodipodi:arg2="1.1155983"
       inkscape:rounded="0.04"
       inkscape:randomized="0"
       d="m 59.389939,131.04214 c -0.399428,0.41479 -3.819167,13.47427 -4.336374,13.72743 -0.517207,0.25317 -12.928673,-5.05722 -13.501275,-4.99622 -0.572603,0.061 -11.586748,7.86698 -12.145682,7.72846 -0.558934,-0.13852 -6.653216,-12.18445 -7.131065,-12.50579 C 21.797693,134.67469 8.3427827,133.57466 8.0036533,133.10927 7.6645238,132.64389 10.739008,119.49884 10.579503,118.94553 10.419998,118.39222 0.82002362,108.90089 0.85938099,108.3264 0.89873837,107.7519 11.703404,99.658453 11.936877,99.132064 12.17035,98.605676 10.917247,85.164157 11.316676,84.749366 c 0.399428,-0.414791 13.878651,0.330371 14.395858,0.07721 0.517207,-0.253164 8.197316,-11.355443 8.769919,-11.416444 0.572602,-0.061 10.419305,9.174105 10.978239,9.312624 0.558934,0.13852 13.578646,-3.42964 14.056496,-3.108308 0.477849,0.321333 2.08465,13.725172 2.423779,14.19056 0.33913,0.465388 12.606378,6.100929 12.765883,6.654244 0.159506,0.55331 -7.225436,11.85407 -7.264793,12.42857 -0.03936,0.5745 5.735444,12.77681 5.501971,13.30319 -0.233473,0.52639 -13.154661,4.43634 -13.554089,4.85113 z"
       inkscape:transform-center-x="2.1703476"
       inkscape:transform-center-y="-5.3150512"
       transform="matrix(1.2116676,0.34232586,-0.44342206,0.93541837,91.411964,-2.2950132)"
       inkscape:export-filename="salesplosion.png"
       inkscape:export-xdpi="96"
       inkscape:export-ydpi="96" />
  </g>
</svg>
