<?xml version="1.0" encoding="UTF-8" standalone="no"?>
<!-- Created with Inkscape (http://www.inkscape.org/) -->

<svg
   width="237.83006mm"
   height="59.807186mm"
   viewBox="0 0 237.83006 59.807186"
   version="1.1"
   id="svg1"
   inkscape:version="1.3.2 (091e20e, 2023-11-25, custom)"
   sodipodi:docname="logomake.svg"
   xmlns:inkscape="http://www.inkscape.org/namespaces/inkscape"
   xmlns:sodipodi="http://sodipodi.sourceforge.net/DTD/sodipodi-0.dtd"
   xmlns="http://www.w3.org/2000/svg"
   xmlns:svg="http://www.w3.org/2000/svg">
  <sodipodi:namedview
     id="namedview1"
     pagecolor="#ffffff"
     bordercolor="#000000"
     borderopacity="0.25"
     inkscape:showpageshadow="2"
     inkscape:pageopacity="0.0"
     inkscape:pagecheckerboard="0"
     inkscape:deskcolor="#d1d1d1"
     inkscape:document-units="mm"
     inkscape:zoom="1"
     inkscape:cx="156"
     inkscape:cy="797.5"
     inkscape:window-width="2560"
     inkscape:window-height="1377"
     inkscape:window-x="-8"
     inkscape:window-y="-8"
     inkscape:window-maximized="1"
     inkscape:current-layer="layer1" />
  <defs
     id="defs1">
    <filter
       style="color-interpolation-filters:sRGB"
       inkscape:label="Matte Jelly"
       id="filter129"
       x="-0.084549943"
       y="-0.67697426"
       width="1.1690999"
       height="2.3539485">
      <feColorMatrix
         values="1 0 0 0 0 0 1 0 0 0 0 0 1 0 0 0 0 0 0.84999999999999998 0"
         result="color"
         in="SourceGraphic"
         id="feColorMatrix128" />
      <feGaussianBlur
         in="SourceAlpha"
         stdDeviation="7"
         result="blur"
         id="feGaussianBlur128" />
      <feSpecularLighting
         in="blur"
         specularExponent="25"
         specularConstant="0.89999998"
         surfaceScale="5"
         lighting-color="#ffffff"
         result="specular"
         id="feSpecularLighting128">
        <feDistantLight
           elevation="60"
           azimuth="225"
           id="feDistantLight128" />
      </feSpecularLighting>
      <feComposite
         in="specular"
         in2="SourceGraphic"
         k3="1"
         k2="1"
         operator="arithmetic"
         result="composite1"
         id="feComposite128"
         k1="0"
         k4="0" />
      <feComposite
         in="composite1"
         in2="color"
         operator="atop"
         result="composite2"
         id="feComposite129" />
    </filter>
  </defs>
  <g
     inkscape:label="Layer 1"
     inkscape:groupmode="layer"
     id="layer1"
     transform="translate(13.778553,-232.93777)">
    <g
       id="g131"
       transform="translate(5.8208367,-10.847917)">
      <text
         xml:space="preserve"
         style="font-size:16.3201px;font-family:'Roswell Wreckage';-inkscape-font-specification:'Roswell Wreckage';letter-spacing:-2.21681px;fill:#0200bd;fill-opacity:1;stroke:#000000;stroke-width:0.514019;stroke-dasharray:none;stroke-opacity:1"
         x="2.7834978"
         y="276.89273"
         id="text31"><tspan
           sodipodi:role="line"
           id="tspan31"
           style="letter-spacing:-2.21681px;fill:#0200bd;fill-opacity:1;stroke:#000000;stroke-width:0.514019;stroke-dasharray:none;stroke-opacity:1"
           x="2.7834978"
           y="276.89273"
           dx="0.25700933">trading-card-game</tspan></text>
      <path
         id="rect71"
         style="fill:#ffd330;fill-opacity:1;stroke:#000000;stroke-width:0.8;stroke-dasharray:none;stroke-opacity:1;filter:url(#filter129)"
         d="m 2.7431398,260.98569 c -2.84766322,0 -5.1425302,5.66768 -5.1425302,12.70495 0,7.03722 2.29486698,12.70222 5.1425302,12.70222 H 195.89079 c 2.84766,0 5.13988,-5.665 5.13988,-12.70222 0,-7.03727 -2.29222,-12.70495 -5.13988,-12.70495 z m 32.2656492,2.23393 h 2.055946 v 12.4632 c 0,0.35061 -0.164687,0.81811 -0.494065,1.4025 -0.329373,0.58439 -0.637501,0.97751 -0.92438,1.17942 -0.329373,-0.3188 -0.818127,-0.80223 -1.466259,-1.45036 0.223131,-0.0956 0.425006,-0.29217 0.605632,-0.58968 0.180627,-0.3081 0.255,-0.57904 0.223126,-0.81282 -1.073132,0.95628 -2.332201,1.43437 -3.77721,1.43437 -1.604381,0 -2.964392,-0.55781 -4.080023,-1.67344 -1.115631,-1.11562 -1.673444,-2.47561 -1.673444,-4.08002 0,-1.59377 0.557813,-2.94846 1.673444,-4.06409 1.126256,-1.11562 2.486267,-1.67344 4.080023,-1.67344 0.49938,0 0.929695,0.0478 1.290943,0.14346 l 0.478129,0.12748 h 2.008138 z m 81.095771,0 h 2.05595 v 12.4632 c 0,0.35061 -0.16469,0.81811 -0.49407,1.4025 -0.32937,0.58439 -0.6375,0.97751 -0.92438,1.17942 -0.32937,-0.3188 -0.81812,-0.80223 -1.46625,-1.45036 0.22312,-0.0956 0.425,-0.29217 0.60562,-0.58968 0.18063,-0.3081 0.25501,-0.57904 0.22313,-0.81282 -1.07313,0.95628 -2.3322,1.43437 -3.77721,1.43437 -1.60438,0 -2.96439,-0.55781 -4.08002,-1.67344 -1.11563,-1.11562 -1.67345,-2.47561 -1.67345,-4.08002 0,-1.59377 0.55782,-2.94846 1.67345,-4.06409 1.12625,-1.11562 2.48627,-1.67344 4.08002,-1.67344 0.49938,0 0.92969,0.0478 1.29095,0.14346 l 0.47813,0.12748 h 2.00813 z m 54.0364,0 h 2.05595 v 12.4632 c 0,0.35061 -0.16469,0.81811 -0.49407,1.4025 -0.32937,0.58439 -0.6375,0.97751 -0.92438,1.17942 -0.32937,-0.3188 -0.81813,-0.80223 -1.46625,-1.45036 0.22312,-0.0956 0.425,-0.29217 0.60562,-0.58968 0.18063,-0.3081 0.255,-0.57904 0.22313,-0.81282 -1.07313,0.95628 -2.3322,1.43437 -3.77721,1.43437 -1.60438,0 -2.96439,-0.55781 -4.08002,-1.67344 -1.11563,-1.11562 -1.67345,-2.47561 -1.67345,-4.08002 0,-1.59377 0.55782,-2.94846 1.67345,-4.06409 1.12625,-1.11562 2.48626,-1.67344 4.08002,-1.67344 0.49938,0 0.92969,0.0478 1.29095,0.14346 l 0.47812,0.12748 h 2.00814 z m -129.601829,2.11971 h 6.056286 v 0.0159 c 0.775628,0.0106 1.439694,0.29752 1.992197,0.86062 0.552503,0.55252 0.828757,1.21658 0.828757,1.99224 0,0.7756 -0.276254,1.44501 -0.828757,2.00811 -0.541878,0.55252 -1.195319,0.82876 -1.960323,0.82876 h -1.418445 c 0.340003,0.59497 0.510004,1.23251 0.510004,1.91251 0,0.67999 -0.170001,1.32282 -0.510004,1.92844 l 2.964392,-0.0159 v 2.00812 h -6.375034 c -1.094382,0 -2.024077,-0.37719 -2.789081,-1.13156 -0.754379,-0.76501 -1.131571,-1.69467 -1.131571,-2.78906 0,-1.07312 0.382507,-1.99219 1.147511,-2.7572 0.775629,-0.77565 1.689384,-1.16343 2.741262,-1.16343 h 4.095962 c 0.584378,0 0.935005,-0.0159 1.051883,-0.0479 0.339997,-0.0956 0.509999,-0.3559 0.509999,-0.78089 0,-0.5738 -0.329378,-0.86068 -0.988129,-0.86068 h -5.896909 z m 91.181609,0 h 6.05629 v 0.0159 c 0.77563,0.0106 1.43969,0.29752 1.9922,0.86062 0.5525,0.55252 0.82875,1.21658 0.82875,1.99224 0,0.7756 -0.27625,1.44501 -0.82875,2.00811 -0.54188,0.55252 -1.19532,0.82876 -1.96033,0.82876 h -1.41844 c 0.34,0.59497 0.51,1.23251 0.51,1.91251 0,0.67999 -0.17,1.32282 -0.51,1.92844 l 2.96439,-0.0159 v 2.00812 h -6.37504 c -1.09438,0 -2.02407,-0.37719 -2.78908,-1.13156 -0.75437,-0.76501 -1.13157,-1.69467 -1.13157,-2.78906 0,-1.07312 0.38251,-1.99219 1.14751,-2.7572 0.77563,-0.77565 1.68939,-1.16343 2.74127,-1.16343 h 4.09596 c 0.58438,0 0.935,-0.0159 1.05188,-0.0479 0.34,-0.0956 0.51,-0.3559 0.51,-0.78089 0,-0.5738 -0.32938,-0.86068 -0.98813,-0.86068 h -5.89691 z m -110.654687,0.0159 5.737533,11.47506 h -1.976263 l -3.76127,-7.4269 -3.809083,7.4269 h -1.960324 z m 46.529796,0 c 1.583131,0 2.932517,0.56311 4.048143,1.68938 1.126256,1.11562 1.68939,2.46502 1.68939,4.04815 0,0.96687 -0.217816,1.85407 -0.653442,2.66159 -0.106252,0.1594 -0.255004,0.39841 -0.446255,0.71721 l -4.637836,9.69002 -4.574093,-9.59441 c -0.106247,-0.14876 -0.260309,-0.3719 -0.46219,-0.66941 -0.478125,-0.83934 -0.71719,-1.77434 -0.71719,-2.805 0,-1.59377 0.557819,-2.94846 1.67345,-4.06409 1.126251,-1.11562 2.486262,-1.67344 4.080023,-1.67344 z m 57.083131,0 5.73754,11.47506 h -1.97627 l -3.76127,-7.4269 -3.80908,7.4269 h -1.96032 z m 54.45078,0 c 1.09438,0 2.02939,0.39312 2.80502,1.17937 0.77562,0.77565 1.16344,1.71065 1.16344,2.80505 0,1.09434 -0.38782,2.02939 -1.16344,2.805 -0.77563,0.77565 -1.71064,1.16343 -2.80502,1.16343 -0.99875,0 -1.87532,-0.32404 -2.6297,-0.97217 -0.74376,-0.65876 -1.17938,-1.48751 -1.30688,-2.48625 -0.14876,0.43563 -0.22313,0.87121 -0.22313,1.30684 0,0.95628 0.33469,1.81161 1.00407,2.56598 0.69062,0.78624 1.50876,1.17936 2.45439,1.17936 h 5.52237 l 0.0531,-4.01628 c 0.0213,-1.49811 0.60564,-2.805 1.75314,-3.92063 1.105,-1.07311 2.43846,-1.6097 4.00034,-1.6097 1.56188,0 2.90595,0.55782 4.03221,1.67344 1.12625,1.11563 1.69469,2.43845 1.70532,3.96848 l 0.0478,5.88094 h -2.02407 l -0.0159,-5.7694 c 0,-0.73309 -0.20188,-1.40779 -0.60563,-2.02405 -0.39313,-0.62689 -0.92438,-1.09439 -1.59376,-1.4025 0.56313,0.47809 0.8447,1.09435 0.8447,1.84872 0,0.66941 -0.23907,1.24316 -0.7172,1.7213 -0.47812,0.47809 -1.05188,0.71716 -1.72126,0.71716 -0.66937,0 -1.24313,-0.23907 -1.72126,-0.71716 -0.47813,-0.47814 -0.71719,-1.05189 -0.71719,-1.7213 0,-0.67999 0.255,-1.26967 0.76501,-1.76904 -0.61626,0.31874 -1.11032,0.7703 -1.4822,1.35469 -0.36125,0.57375 -0.54719,1.20065 -0.55781,1.88064 l -0.0638,5.88094 h -1.43172 v 0.0797 c -0.0106,0 -0.0159,0.005 -0.0159,0.0159 l -0.60563,-0.0159 h -10.91725 l 1.41845,-2.05598 c -0.93501,-1.05188 -1.40251,-2.30033 -1.40251,-3.74534 0,-1.54062 0.53657,-2.86874 1.6097,-3.98437 0.5525,-0.57374 1.14219,-0.99344 1.76907,-1.25908 0.53125,-0.22314 1.23782,-0.38783 2.1197,-0.49408 0.36125,-0.0425 0.57906,-0.0637 0.65344,-0.0637 z m -85.606111,0.0159 h 6.789421 v 0.0319 c 1.5725,0.0213 2.91126,0.58968 4.01626,1.70536 1.10501,1.11562 1.65751,2.45968 1.65751,4.03216 0,1.59377 -0.55781,2.95381 -1.67344,4.08003 -1.11563,1.11562 -2.47033,1.67344 -4.06409,1.67344 -1.604381,0 -2.964391,-0.55782 -4.080021,-1.67344 -1.11563,-1.11563 -1.67345,-2.47562 -1.67345,-4.08003 0,-1.43437 0.46751,-2.68281 1.40251,-3.74529 h -2.3747 z m -78.912318,0.0319 v 11.47505 h -2.024077 v -1.37063 c -0.44625,0.39312 -0.940315,0.70128 -1.482193,0.92441 0.616252,0.64813 0.92438,1.42373 0.92438,2.32686 0,0.95628 -0.340003,1.7691 -1.020008,2.43845 -0.669376,0.68 -1.4821937,1.02002 -2.4384474,1.02002 -0.966879,0 -1.785012,-0.33467 -2.454393,-1.00408 -0.669376,-0.66936 -1.004069,-1.48747 -1.004069,-2.45439 0,-0.9881 0.361258,-1.82219 1.083757,-2.50219 -0.956254,-0.49937 -1.715948,-1.20064 -2.279076,-2.10378 -0.552498,-0.91372 -0.8287523,-1.9125 -0.8287523,-2.99626 0,-1.59372 0.5578183,-2.94841 1.6734493,-4.06409 1.126251,-1.11563 2.486262,-1.67344 4.080023,-1.67344 1.4343784,0 2.6934524,0.47285 3.7772034,1.41849 z m 64.969582,0 c 1.296258,0 2.454393,0.38782 3.474396,1.16348 l 0.765004,-0.68534 1.38657,1.53002 -0.749064,0.70123 c 0.573753,0.92441 0.860627,1.91785 0.860627,2.98033 0,1.615 -0.552503,2.98033 -1.65751,4.09596 -1.094376,1.11562 -2.449078,1.67344 -4.064083,1.67344 -1.604386,0 -2.964392,-0.54718 -4.080023,-1.64157 -1.115631,-1.09435 -1.673449,-2.44375 -1.673449,-4.04816 0,-1.62558 0.547193,-2.99092 1.641575,-4.09595 1.105001,-1.11563 2.470327,-1.67344 4.095957,-1.67344 z m 74.656987,0 c 1.29626,0 2.45439,0.38782 3.4744,1.16348 l 0.765,-0.68534 1.38657,1.53002 -0.74906,0.70123 c 0.57375,0.92441 0.86062,1.91785 0.86062,2.98033 0,1.615 -0.5525,2.98033 -1.65751,4.09596 -1.09437,1.11562 -2.44908,1.67344 -4.06408,1.67344 -1.60438,0 -2.96439,-0.54718 -4.08002,-1.64157 -1.11564,-1.09435 -1.67345,-2.44375 -1.67345,-4.04816 0,-1.62558 0.54719,-2.99092 1.64157,-4.09595 1.105,-1.11563 2.47033,-1.67344 4.09596,-1.67344 z m -98.767905,0.0159 c 1.604386,0 2.975021,0.54722 4.111902,1.64157 1.136881,1.0944 1.705319,2.43845 1.705319,4.03222 0,1.64692 -0.557813,3.02814 -1.673444,4.14376 -1.105007,1.10504 -2.475643,1.65751 -4.111898,1.65751 -0.2125,0 -0.419691,-0.0106 -0.621567,-0.0319 l 0.207186,-1.97625 c 0.180626,0.0213 0.361252,0.0319 0.541878,0.0319 1.030634,0 1.9072,-0.37719 2.629704,-1.13156 0.722505,-0.76502 1.067818,-1.65221 1.035943,-2.66159 v -0.22314 l -1.434384,1.16348 -1.259068,-1.57783 1.960323,-1.57783 -0.04781,-0.0478 -0.03187,-0.0478 c -0.70125,-0.935 -1.705324,-1.4025 -3.012206,-1.4025 -0.95625,0 -1.785007,0.32939 -2.486262,0.9881 -0.701255,0.64813 -1.094382,1.45565 -1.17938,2.42252 l -1.960323,-0.255 c 0.138122,-1.44501 0.743754,-2.66159 1.816881,-3.64969 1.083757,-0.99879 2.353455,-1.49816 3.809084,-1.49816 z m 123.659765,1.84877 c -0.57375,0 -1.06251,0.20191 -1.46626,0.60562 -0.40375,0.40376 -0.60562,0.89254 -0.60562,1.46629 0,0.57375 0.20187,1.06247 0.60562,1.46624 0.40375,0.40376 0.89251,0.60561 1.46626,0.60561 0.57375,0 1.06251,-0.20185 1.46626,-0.60561 0.40375,-0.40377 0.60563,-0.89249 0.60563,-1.46624 0,-0.57375 -0.20188,-1.06253 -0.60563,-1.46629 -0.40375,-0.40371 -0.89251,-0.60562 -1.46626,-0.60562 z m -89.765823,0.0319 c 0.956255,0 1.769072,0.34002 2.438453,1.02002 0.680001,0.66935 1.020003,1.48217 1.020003,2.43845 0,0.95623 -0.340002,1.77439 -1.020003,2.45439 -0.669381,0.66936 -1.482198,1.00408 -2.438453,1.00408 -0.966879,0 -1.785012,-0.33472 -2.454387,-1.00408 -0.669376,-0.66936 -1.004069,-1.48752 -1.004069,-2.45439 0,-0.95628 0.334693,-1.7691 1.004069,-2.43845 0.680005,-0.68 1.498133,-1.02002 2.454387,-1.02002 z m 55.024533,0 c 0.95625,0 1.76907,0.34002 2.43845,1.02002 0.68,0.66935 1.02001,1.48217 1.02001,2.43845 0,0.95623 -0.34001,1.77439 -1.02001,2.45439 -0.66938,0.66936 -1.4822,1.00408 -2.43845,1.00408 -0.96688,0 -1.78501,-0.33472 -2.45439,-1.00408 -0.66938,-0.66936 -1.00407,-1.48752 -1.00407,-2.45439 0,-0.95628 0.33469,-1.7691 1.00407,-2.43845 0.68,-0.68 1.49813,-1.02002 2.45439,-1.02002 z m -113.156891,0.0319 c -1.041253,0 -1.928449,0.3666 -2.661578,1.09969 -0.733129,0.73315 -1.099692,1.62034 -1.099692,2.66159 0,1.05189 0.361253,1.94438 1.083757,2.67752 0.733125,0.72251 1.625636,1.08376 2.677513,1.08376 1.041253,0 1.923139,-0.36655 2.645639,-1.09969 0.733129,-0.73315 1.099696,-1.62034 1.099696,-2.66159 0,-1.04125 -0.366567,-1.92844 -1.099696,-2.66159 -0.7225,-0.73309 -1.604386,-1.09969 -2.645639,-1.09969 z m 36.36427,0 c -1.041258,0 -1.928449,0.3666 -2.661578,1.09969 -0.73313,0.73315 -1.099697,1.62034 -1.099697,2.66159 0,1.05189 0.361252,1.94438 1.083757,2.67752 0.733129,0.72251 1.625635,1.08376 2.677518,1.08376 1.041253,0 1.928449,-0.36655 2.661573,-1.09969 0.733129,-0.73315 1.099697,-1.62034 1.099697,-2.66159 0,-1.04125 -0.366568,-1.92844 -1.099697,-2.66159 -0.733124,-0.73309 -1.62032,-1.09969 -2.661573,-1.09969 z m 44.731501,0 c -1.04125,0 -1.92845,0.3666 -2.66158,1.09969 -0.73313,0.73315 -1.09969,1.62034 -1.09969,2.66159 0,1.05189 0.36125,1.94438 1.08375,2.67752 0.73313,0.72251 1.62564,1.08376 2.67752,1.08376 1.04126,0 1.92314,-0.36655 2.64564,-1.09969 0.73313,-0.73315 1.0997,-1.62034 1.0997,-2.66159 0,-1.04125 -0.36657,-1.92844 -1.0997,-2.66159 -0.7225,-0.73309 -1.60438,-1.09969 -2.64564,-1.09969 z m 54.0364,0 c -1.04125,0 -1.92845,0.3666 -2.66157,1.09969 -0.73313,0.73315 -1.0997,1.62034 -1.0997,2.66159 0,1.05189 0.36125,1.94438 1.08376,2.67752 0.73312,0.72251 1.62563,1.08376 2.67751,1.08376 1.04126,0 1.92314,-0.36655 2.64564,-1.09969 0.73313,-0.73315 1.09969,-1.62034 1.09969,-2.66159 0,-1.04125 -0.36656,-1.92844 -1.09969,-2.66159 -0.7225,-0.73309 -1.60438,-1.09969 -2.64564,-1.09969 z m -66.05068,0.0479 v 0.0159 h -0.27094 c -0.956262,0 -1.790331,0.38248 -2.502211,1.14749 -0.70125,0.76502 -1.05188,1.63093 -1.05188,2.5978 0,1.05189 0.36125,1.94438 1.08376,2.67753 0.73313,0.7225 1.625629,1.08375 2.677511,1.08375 1.04126,0 1.92845,-0.36654 2.66158,-1.09969 0.73313,-0.73314 1.0997,-1.62034 1.0997,-2.66159 0,-1.0306 -0.36126,-1.90716 -1.08376,-2.62966 -0.71188,-0.73315 -1.58314,-1.11034 -2.61376,-1.13157 z m -91.4711454,0.0159 c -1.041258,0 -1.928449,0.36655 -2.661578,1.09969 -0.733129,0.73309 -1.099697,1.62029 -1.099697,2.66154 0,1.05189 0.361253,1.94443 1.083757,2.67752 0.73313,0.72251 1.625636,1.08376 2.677518,1.08376 1.0093787,0 1.8859444,-0.35591 2.6296984,-1.06782 0.743754,-0.71187 1.115631,-1.5672 1.115631,-2.56593 v -0.25501 c 0,-0.98815 -0.377187,-1.83813 -1.131566,-2.54999 -0.743754,-0.72251 -1.6150097,-1.08376 -2.6137634,-1.08376 z m 70.7071144,0 c -1.051878,0 -1.939074,0.36655 -2.661578,1.09969 -0.711875,0.73309 -1.067818,1.63093 -1.067818,2.69346 0,1.03061 0.366568,1.90716 1.099692,2.62967 0.733129,0.7225 1.620326,1.08375 2.661578,1.08375 1.041258,0 1.923139,-0.36654 2.645639,-1.09969 0.733129,-0.74373 1.099696,-1.63627 1.099696,-2.67752 0,-0.57375 -0.127502,-1.12092 -0.382501,-1.64157 l -2.709393,2.47032 -1.402505,-1.54591 2.725327,-2.47032 c -0.616252,-0.36125 -1.285632,-0.54188 -2.008137,-0.54188 z m 74.656991,0 c -1.05188,0 -1.93908,0.36655 -2.66158,1.09969 -0.71188,0.73309 -1.06782,1.63093 -1.06782,2.69346 0,1.03061 0.36657,1.90716 1.09969,2.62967 0.73313,0.7225 1.62033,1.08375 2.66158,1.08375 1.04126,0 1.92314,-0.36654 2.64564,-1.09969 0.73313,-0.74373 1.09969,-1.63627 1.09969,-2.67752 0,-0.57375 -0.1275,-1.12092 -0.3825,-1.64157 l -2.70939,2.47032 -1.4025,-1.54591 2.72532,-2.47032 c -0.61625,-0.36125 -1.28563,-0.54188 -2.00813,-0.54188 z m 35.50363,0.87656 c -0.35062,0 -0.64812,0.12218 -0.8925,0.36654 -0.23375,0.24437 -0.35063,0.54188 -0.35063,0.89249 0,0.35067 0.11688,0.64813 0.35063,0.89254 0.24438,0.24437 0.54188,0.36655 0.8925,0.36655 0.35063,0 0.64813,-0.12218 0.89251,-0.36655 0.24437,-0.24441 0.36656,-0.54187 0.36656,-0.89254 0,-0.35061 -0.12219,-0.64812 -0.36656,-0.89249 -0.24438,-0.24436 -0.54188,-0.36654 -0.89251,-0.36654 z m -100.345723,0.68529 c -0.499374,0 -0.92969,0.17533 -1.290942,0.52594 -0.350628,0.35066 -0.525944,0.77565 -0.525944,1.27502 0,0.51001 0.175316,0.9403 0.525944,1.29096 0.350627,0.33997 0.780943,0.51001 1.290942,0.51001 0.49938,0 0.92438,-0.17533 1.275008,-0.52594 0.350628,-0.35067 0.525939,-0.77566 0.525939,-1.27503 0,-0.48878 -0.180626,-0.90842 -0.541874,-1.25909 -0.350627,-0.36125 -0.770318,-0.54187 -1.259073,-0.54187 z m 55.024533,0 c -0.49937,0 -0.92969,0.17533 -1.29094,0.52594 -0.35063,0.35066 -0.52595,0.77565 -0.52595,1.27502 0,0.51001 0.17532,0.9403 0.52595,1.29096 0.35062,0.33997 0.78094,0.51001 1.29094,0.51001 0.49938,0 0.92438,-0.17533 1.27501,-0.52594 0.35062,-0.35067 0.52594,-0.77566 0.52594,-1.27503 0,-0.48878 -0.18063,-0.90842 -0.54188,-1.25909 -0.35062,-0.36125 -0.77032,-0.54187 -1.25907,-0.54187 z m -102.622145,2.05597 c -0.499375,0 -0.935006,0.19656 -1.306883,0.58968 -0.371877,0.39312 -0.557813,0.83939 -0.557813,1.33876 0,0.52065 0.180626,0.97751 0.541879,1.37063 0.361252,0.38248 0.802193,0.57375 1.322817,0.57375 h 0.605632 c 0.127497,0 0.313438,-0.0903 0.557813,-0.27094 0.2125,-0.15935 0.371877,-0.3081 0.47813,-0.44627 0.276249,-0.35061 0.414376,-0.75437 0.414376,-1.21123 0,-0.45686 -0.143437,-0.86597 -0.430316,-1.22717 -0.116878,-0.13817 -0.276249,-0.28158 -0.478125,-0.43034 -0.255004,-0.19127 -0.446255,-0.28687 -0.573758,-0.28687 z m 91.181615,0 c -0.49938,0 -0.93501,0.19656 -1.30689,0.58968 -0.37187,0.39312 -0.55781,0.83939 -0.55781,1.33876 0,0.52065 0.18063,0.97751 0.54188,1.37063 0.36125,0.38248 0.80219,0.57375 1.32282,0.57375 h 0.60563 c 0.1275,0 0.31344,-0.0903 0.55781,-0.27094 0.2125,-0.15935 0.37188,-0.3081 0.47813,-0.44627 0.27625,-0.35061 0.41438,-0.75437 0.41438,-1.21123 0,-0.45686 -0.14344,-0.86597 -0.43032,-1.22717 -0.11688,-0.13817 -0.27625,-0.28158 -0.47813,-0.43034 -0.255,-0.19127 -0.44625,-0.28687 -0.57375,-0.28687 z m -67.057415,5.56219 1.705324,3.53815 1.721258,-3.53815 c -0.563128,0.18063 -1.136881,0.27094 -1.721258,0.27094 -0.584378,0 -1.152821,-0.0903 -1.705324,-0.27094 z m -57.3195394,0.38254 c -0.510004,0 -0.94032,0.16998 -1.290948,0.51 -0.340002,0.35062 -0.510004,0.7809 -0.510004,1.29091 0,0.51001 0.170002,0.935 0.510004,1.27502 0.350628,0.35062 0.780944,0.52595 1.290948,0.52595 0.499374,0 0.9243797,-0.17533 1.2750027,-0.52595 0.3506267,-0.35061 0.5259427,-0.7756 0.5259427,-1.27502 0,-0.49937 -0.175316,-0.92436 -0.5259427,-1.27497 -0.350623,-0.35066 -0.7756287,-0.52594 -1.2750027,-0.52594 z" />
      <path
         id="path130"
         style="fill:none;fill-opacity:1;stroke:#000000;stroke-width:2;stroke-dasharray:none;stroke-opacity:1"
         d="m 2.7431396,260.98569 c -2.8476633,0 -5.1425302,5.66768 -5.1425302,12.70495 0,7.03722 2.2948669,12.70222 5.1425302,12.70222 H 195.89079 c 2.84766,0 5.13988,-5.665 5.13988,-12.70222 0,-7.03727 -2.29222,-12.70495 -5.13988,-12.70495 z"
         sodipodi:nodetypes="sssssss" />
    </g>
  </g>
</svg>
