<?xml version="1.0" encoding="UTF-8" standalone="no"?>
<!-- Created with Inkscape (http://www.inkscape.org/) -->

<svg
   width="2228"
   height="1231"
   viewBox="0 0 589.49167 325.70207"
   version="1.1"
   id="svg1"
   xml:space="preserve"
   inkscape:export-filename="..\..\..\DraftingGame\src\assets\hexagons.png"
   inkscape:export-xdpi="96"
   inkscape:export-ydpi="96"
   inkscape:version="1.3.2 (091e20e, 2023-11-25, custom)"
   sodipodi:docname="border.svg"
   xmlns:inkscape="http://www.inkscape.org/namespaces/inkscape"
   xmlns:sodipodi="http://sodipodi.sourceforge.net/DTD/sodipodi-0.dtd"
   xmlns:xlink="http://www.w3.org/1999/xlink"
   xmlns="http://www.w3.org/2000/svg"
   xmlns:svg="http://www.w3.org/2000/svg"><sodipodi:namedview
     id="namedview1"
     pagecolor="#ffffff"
     bordercolor="#000000"
     borderopacity="0.25"
     inkscape:showpageshadow="2"
     inkscape:pageopacity="0.0"
     inkscape:pagecheckerboard="0"
     inkscape:deskcolor="#d1d1d1"
     inkscape:document-units="mm"
     inkscape:zoom="0.45254834"
     inkscape:cx="1052.9262"
     inkscape:cy="639.71067"
     inkscape:window-width="2560"
     inkscape:window-height="1377"
     inkscape:window-x="-8"
     inkscape:window-y="-8"
     inkscape:window-maximized="1"
     inkscape:current-layer="layer1" /><defs
     id="defs1"><linearGradient
       id="linearGradient2-5"
       inkscape:label="Red_Dark"><stop
         style="stop-color:#fadcd5;stop-opacity:1;"
         offset="0"
         id="stop53" /><stop
         style="stop-color:#f1caca;stop-opacity:1;"
         offset="1"
         id="stop54" /></linearGradient><linearGradient
       id="swatch23"
       inkscape:swatch="solid"><stop
         style="stop-color:#000000;stop-opacity:1;"
         offset="0"
         id="stop23" /></linearGradient><linearGradient
       inkscape:collect="always"
       xlink:href="#linearGradient2-5"
       id="linearGradient1075"
       x1="-0.58418375"
       y1="162.85104"
       x2="590.07587"
       y2="162.85104"
       gradientUnits="userSpaceOnUse" /><filter
       inkscape:collect="always"
       style="color-interpolation-filters:sRGB"
       id="filter1076"
       x="-0.084236909"
       y="-0.15214064"
       width="1.1684738"
       height="1.3042813"><feGaussianBlur
         inkscape:collect="always"
         stdDeviation="20.643659"
         id="feGaussianBlur1076" /></filter></defs><g
     inkscape:label="Layer 1"
     inkscape:groupmode="layer"
     id="layer1"><rect
       style="opacity:1;fill:#000000;fill-opacity:1;stroke:none;stroke-width:2.5589;stroke-linejoin:bevel;stroke-opacity:0.02"
       id="rect1076"
       width="596.96619"
       height="334.86331"
       x="-4.1341147"
       y="-1.6536459" /><rect
       style="opacity:0.441088;mix-blend-mode:normal;fill:url(#linearGradient1075);fill-opacity:1;stroke:none;stroke-width:2.5;stroke-linejoin:bevel;stroke-opacity:1;filter:url(#filter1076)"
       id="rect1074"
       width="588.16003"
       height="325.65121"
       x="0.66581625"
       y="0.025434367"
       transform="matrix(0.93864243,0,0,1,25.112885,0)" /><g
       id="g1074"
       style="opacity:0.279456;stroke:#afafaf;stroke-opacity:0.235294"
       transform="translate(0.82682292,-1.0583333)"><path
         id="use989"
         style="fill:none;fill-opacity:0.443561;stroke:#afafaf;stroke-width:2.5;stroke-linejoin:bevel;stroke-opacity:0.235294"
         inkscape:transform-center-x="2.1614583e-06"
         inkscape:transform-center-y="-1.5e-06"
         d="m 2.0136719,-14.705078 c -10.6617188,-0.01277 -21.3264679,-0.03616 -31.9863279,0.0039 -1.449852,0.327907 -1.778831,1.97194 -2.539013,3.030698 -5.118229,8.887601 -10.272967,17.7576794 -15.368384,26.65623 -0.463086,1.462775 0.83348,2.606254 1.385488,3.826805 5.118877,8.848687 10.204465,17.720105 15.344144,26.554588 1.035677,1.135626 2.678704,0.591272 4.014874,0.718789 10.22546,-0.01057 20.4542892,0.02113 30.6776428,-0.01585 1.5000589,-0.332329 1.8476074,-2.025608 2.627402,-3.11898 C 11.270926,34.09236 16.408858,25.251131 21.487475,16.381432 21.950561,14.918656 20.653995,13.775178 20.101987,12.554626 14.97762,3.6975573 9.8887143,-5.1829987 4.7421875,-14.025391 4.0677068,-14.798473 2.9487562,-14.779717 2.0136719,-14.705078 Z" /><path
         id="use990"
         style="fill:#888888;fill-opacity:0.497615;stroke:#afafaf;stroke-width:2.5;stroke-linejoin:bevel;stroke-opacity:0.235294"
         inkscape:transform-center-x="2.1614583e-06"
         inkscape:transform-center-y="-1.5e-06"
         d="m 61.164062,21.648438 c -10.661718,-0.01277 -21.326467,-0.03616 -31.986328,0.0039 -1.449852,0.327906 -1.77883,1.97194 -2.539012,3.030698 -5.11823,8.887601 -10.272967,17.757679 -15.368384,26.656229 -0.463086,1.462776 0.833479,2.606254 1.385488,3.826806 5.118877,8.848687 10.204464,17.720105 15.344144,26.554588 1.035676,1.135626 2.678703,0.591271 4.014874,0.718788 10.225459,-0.01057 20.454289,0.02113 30.677642,-0.01585 1.500059,-0.332329 1.847608,-2.025609 2.627402,-3.118981 5.101428,-8.85875 10.23936,-17.69998 15.317978,-26.569679 0.463086,-1.462775 -0.83348,-2.606254 -1.385489,-3.826805 C 74.12801,40.051073 69.039105,31.170517 63.892578,22.328125 63.218097,21.555043 62.099147,21.573798 61.164062,21.648438 Z" /><path
         id="use991"
         style="fill:#888888;fill-opacity:0.497615;stroke:#afafaf;stroke-width:2.5;stroke-linejoin:bevel;stroke-opacity:0.235294"
         inkscape:transform-center-x="2.1614583e-06"
         inkscape:transform-center-y="-1.5e-06"
         d="m 120.31445,58.001953 c -10.66172,-0.01277 -21.326465,-0.03616 -31.986325,0.0039 -1.449852,0.327907 -1.77883,1.97194 -2.539012,3.030698 -5.11823,8.887601 -10.272967,17.75768 -15.368385,26.65623 -0.463086,1.462776 0.83348,2.606254 1.385489,3.826806 5.118877,8.848683 10.204464,17.720103 15.344143,26.554583 1.035677,1.13563 2.678704,0.59127 4.014874,0.71879 10.225456,-0.0106 20.454286,0.0211 30.677646,-0.0159 1.50006,-0.33233 1.8476,-2.02561 2.6274,-3.11898 5.10143,-8.85875 10.23936,-17.699974 15.31798,-26.569673 0.46308,-1.462776 -0.83348,-2.606254 -1.38549,-3.826806 -5.12437,-8.857068 -10.21327,-17.737624 -15.3598,-26.580016 -0.67448,-0.773083 -1.79343,-0.754327 -2.72852,-0.679688 z" /><path
         id="use992"
         style="fill:none;fill-opacity:0.443561;stroke:#afafaf;stroke-width:2.5;stroke-linejoin:bevel;stroke-opacity:0.235294"
         inkscape:transform-center-x="2.1614583e-06"
         inkscape:transform-center-y="-1.5e-06"
         d="m 179.46484,94.355469 c -10.66171,-0.01278 -21.32646,-0.03616 -31.98632,0.0039 -1.44986,0.327907 -1.77883,1.97194 -2.53902,3.030698 -5.11823,8.887593 -10.27296,17.757673 -15.36838,26.656223 -0.46309,1.46278 0.83348,2.60626 1.38549,3.82681 5.11887,8.84869 10.20446,17.7201 15.34414,26.55459 1.03568,1.13562 2.6787,0.59127 4.01488,0.71878 10.22545,-0.0106 20.45428,0.0211 30.67764,-0.0158 1.50006,-0.33233 1.84761,-2.02561 2.6274,-3.11898 5.10143,-8.85875 10.23936,-17.69998 15.31798,-26.56968 0.46308,-1.46278 -0.83348,-2.60626 -1.38549,-3.82681 -5.12437,-8.85707 -10.21327,-17.73762 -15.3598,-26.58001 -0.67448,-0.773082 -1.79343,-0.754327 -2.72852,-0.679687 z" /><path
         id="use993"
         style="fill:none;fill-opacity:0.443561;stroke:#afafaf;stroke-width:2.5;stroke-linejoin:bevel;stroke-opacity:0.235294"
         inkscape:transform-center-x="2.1614583e-06"
         inkscape:transform-center-y="-1.5e-06"
         d="m 238.61523,130.71094 c -10.66171,-0.0128 -21.32646,-0.0362 -31.98632,0.004 -1.44986,0.32791 -1.77883,1.97194 -2.53902,3.0307 -5.11823,8.8876 -10.27296,17.75768 -15.36838,26.65623 -0.46309,1.46278 0.83348,2.60626 1.38549,3.82681 5.11887,8.84868 10.20446,17.7201 15.34414,26.55459 1.03568,1.13562 2.67871,0.59127 4.01488,0.71878 10.22546,-0.0106 20.45428,0.0211 30.67764,-0.0158 1.50006,-0.33233 1.84761,-2.02561 2.6274,-3.11898 5.10143,-8.85875 10.23936,-17.69998 15.31798,-26.56968 0.46308,-1.46278 -0.83348,-2.60626 -1.38549,-3.82681 -5.12437,-8.85707 -10.21327,-17.73762 -15.3598,-26.58002 -0.67363,-0.77437 -1.79369,-0.75357 -2.72852,-0.67968 z" /><path
         id="use995"
         style="fill:none;fill-opacity:0.443561;stroke:#afafaf;stroke-width:2.5;stroke-linejoin:bevel;stroke-opacity:0.235294"
         inkscape:transform-center-x="2.1614583e-06"
         inkscape:transform-center-y="-1.5e-06"
         d="m 120.31445,-14.705078 c -10.66172,-0.01277 -21.326465,-0.03616 -31.986325,0.0039 -1.449852,0.327907 -1.77883,1.97194 -2.539012,3.030698 -5.11823,8.887601 -10.272967,17.7576794 -15.368385,26.65623 -0.463086,1.462775 0.83348,2.606254 1.385489,3.826805 5.118877,8.848687 10.204464,17.720105 15.344143,26.554588 1.035677,1.135626 2.678704,0.591272 4.014874,0.718789 10.225456,-0.01057 20.454286,0.02113 30.677646,-0.01585 1.50006,-0.332329 1.8476,-2.025608 2.6274,-3.11898 5.10143,-8.858751 10.23936,-17.69998 15.31798,-26.569679 0.46308,-1.462776 -0.83348,-2.606254 -1.38549,-3.826806 -5.12437,-8.8570687 -10.21327,-17.7376247 -15.3598,-26.580017 -0.67448,-0.773082 -1.79343,-0.754326 -2.72852,-0.679687 z" /><path
         id="use996"
         style="fill:none;fill-opacity:0.443561;stroke:#afafaf;stroke-width:2.5;stroke-linejoin:bevel;stroke-opacity:0.235294"
         inkscape:transform-center-x="2.1614583e-06"
         inkscape:transform-center-y="-1.5e-06"
         d="m 179.46484,21.648438 c -10.66171,-0.01277 -21.32646,-0.03616 -31.98632,0.0039 -1.44986,0.327906 -1.77883,1.97194 -2.53902,3.030698 -5.11823,8.887601 -10.27296,17.757679 -15.36838,26.656229 -0.46309,1.462776 0.83348,2.606254 1.38549,3.826806 5.11887,8.848687 10.20446,17.720105 15.34414,26.554588 1.03568,1.135626 2.6787,0.591271 4.01488,0.718788 10.22545,-0.01057 20.45428,0.02113 30.67764,-0.01585 1.50006,-0.332329 1.84761,-2.025609 2.6274,-3.118981 5.10143,-8.85875 10.23936,-17.69998 15.31798,-26.569679 0.46308,-1.462775 -0.83348,-2.606254 -1.38549,-3.826805 -5.12437,-8.857069 -10.21327,-17.737625 -15.3598,-26.580017 -0.67448,-0.773082 -1.79343,-0.754327 -2.72852,-0.679687 z" /><path
         id="use997"
         style="fill:none;fill-opacity:0.443561;stroke:#afafaf;stroke-width:2.5;stroke-linejoin:bevel;stroke-opacity:0.235294"
         inkscape:transform-center-x="2.1614583e-06"
         inkscape:transform-center-y="-1.5e-06"
         d="m 238.61523,58.001953 c -10.66171,-0.01277 -21.32646,-0.03616 -31.98632,0.0039 -1.44986,0.327907 -1.77883,1.97194 -2.53902,3.030698 -5.11823,8.887601 -10.27296,17.75768 -15.36838,26.65623 -0.46309,1.462776 0.83348,2.606254 1.38549,3.826806 5.11887,8.848683 10.20446,17.720103 15.34414,26.554583 1.03568,1.13563 2.67871,0.59127 4.01488,0.71879 10.22546,-0.0106 20.45428,0.0211 30.67764,-0.0159 1.50006,-0.33233 1.84761,-2.02561 2.6274,-3.11898 5.10143,-8.85875 10.23936,-17.699974 15.31798,-26.569673 0.46308,-1.462776 -0.83348,-2.606254 -1.38549,-3.826806 -5.12437,-8.857068 -10.21327,-17.737624 -15.3598,-26.580016 -0.67448,-0.773083 -1.79343,-0.754327 -2.72852,-0.679688 z" /><path
         id="use998"
         style="fill:none;fill-opacity:0.443561;stroke:#afafaf;stroke-width:2.5;stroke-linejoin:bevel;stroke-opacity:0.235294"
         inkscape:transform-center-x="2.1614583e-06"
         inkscape:transform-center-y="-1.5e-06"
         d="m 297.76562,94.355469 c -10.66171,-0.01278 -21.32646,-0.03616 -31.98632,0.0039 -1.44986,0.327907 -1.77883,1.97194 -2.53902,3.030698 -5.11823,8.887593 -10.27296,17.757673 -15.36838,26.656223 -0.46309,1.46278 0.83348,2.60626 1.38549,3.82681 5.11888,8.84869 10.20446,17.7201 15.34414,26.55459 1.03568,1.13562 2.67871,0.59127 4.01488,0.71878 10.22546,-0.0106 20.45429,0.0211 30.67764,-0.0158 1.50006,-0.33233 1.84761,-2.02561 2.6274,-3.11898 5.10143,-8.85875 10.23936,-17.69998 15.31798,-26.56968 0.46308,-1.46278 -0.83348,-2.60626 -1.38549,-3.82681 -5.12437,-8.85707 -10.21327,-17.73762 -15.3598,-26.58001 -0.67448,-0.773082 -1.79343,-0.754327 -2.72852,-0.679687 z" /><path
         id="use999"
         style="fill:none;fill-opacity:0.443561;stroke:#afafaf;stroke-width:2.5;stroke-linejoin:bevel;stroke-opacity:0.235294"
         inkscape:transform-center-x="2.1614583e-06"
         inkscape:transform-center-y="-1.5e-06"
         d="m 356.91797,130.71094 c -10.66172,-0.0128 -21.32647,-0.0362 -31.98633,0.004 -1.44985,0.32791 -1.77883,1.97194 -2.53901,3.0307 -5.11823,8.8876 -10.27297,17.75768 -15.36839,26.65623 -0.46308,1.46278 0.83348,2.60626 1.38549,3.82681 5.11888,8.84868 10.20447,17.7201 15.34415,26.55459 1.03567,1.13562 2.6787,0.59127 4.01487,0.71878 10.22546,-0.0106 20.45429,0.0211 30.67764,-0.0158 1.50006,-0.33233 1.84761,-2.02561 2.6274,-3.11898 5.10143,-8.85875 10.23936,-17.69998 15.31798,-26.56968 0.46309,-1.46278 -0.83348,-2.60626 -1.38549,-3.82681 -5.12436,-8.85707 -10.21327,-17.73762 -15.3598,-26.58002 -0.67363,-0.77437 -1.79368,-0.75357 -2.72851,-0.67968 z" /><path
         id="use1001"
         style="fill:none;fill-opacity:0.443561;stroke:#afafaf;stroke-width:2.5;stroke-linejoin:bevel;stroke-opacity:0.235294"
         inkscape:transform-center-x="2.1614583e-06"
         inkscape:transform-center-y="-1.5e-06"
         d="m 238.61523,-14.705078 c -10.66171,-0.01277 -21.32646,-0.03616 -31.98632,0.0039 -1.44986,0.327907 -1.77883,1.97194 -2.53902,3.030698 -5.11823,8.887601 -10.27296,17.7576794 -15.36838,26.65623 -0.46309,1.462775 0.83348,2.606254 1.38549,3.826805 5.11887,8.848687 10.20446,17.720105 15.34414,26.554588 1.03568,1.135626 2.67871,0.591272 4.01488,0.718789 10.22546,-0.01057 20.45428,0.02113 30.67764,-0.01585 1.50006,-0.332329 1.84761,-2.025608 2.6274,-3.11898 5.10143,-8.858751 10.23936,-17.69998 15.31798,-26.569679 0.46308,-1.462776 -0.83348,-2.606254 -1.38549,-3.826806 -5.12437,-8.8570687 -10.21327,-17.7376247 -15.3598,-26.580017 -0.67448,-0.773082 -1.79343,-0.754326 -2.72852,-0.679687 z" /><path
         id="use1002"
         style="fill:none;fill-opacity:0.443561;stroke:#afafaf;stroke-width:2.5;stroke-linejoin:bevel;stroke-opacity:0.235294"
         inkscape:transform-center-x="2.1614583e-06"
         inkscape:transform-center-y="-1.5e-06"
         d="m 297.76562,21.648438 c -10.66171,-0.01277 -21.32646,-0.03616 -31.98632,0.0039 -1.44986,0.327906 -1.77883,1.97194 -2.53902,3.030698 -5.11823,8.887601 -10.27296,17.757679 -15.36838,26.656229 -0.46309,1.462776 0.83348,2.606254 1.38549,3.826806 5.11888,8.848687 10.20446,17.720105 15.34414,26.554588 1.03568,1.135626 2.67871,0.591271 4.01488,0.718788 10.22546,-0.01057 20.45429,0.02113 30.67764,-0.01585 1.50006,-0.332329 1.84761,-2.025609 2.6274,-3.118981 5.10143,-8.85875 10.23936,-17.69998 15.31798,-26.569679 0.46308,-1.462775 -0.83348,-2.606254 -1.38549,-3.826805 -5.12437,-8.857069 -10.21327,-17.737625 -15.3598,-26.580017 -0.67448,-0.773082 -1.79343,-0.754327 -2.72852,-0.679687 z" /><path
         id="use1003"
         style="fill:none;fill-opacity:0.443561;stroke:#afafaf;stroke-width:2.5;stroke-linejoin:bevel;stroke-opacity:0.235294"
         inkscape:transform-center-x="2.1614583e-06"
         inkscape:transform-center-y="-1.5e-06"
         d="m 356.91797,58.001953 c -10.66172,-0.01277 -21.32647,-0.03616 -31.98633,0.0039 -1.44985,0.327907 -1.77883,1.97194 -2.53901,3.030698 -5.11823,8.887601 -10.27297,17.75768 -15.36839,26.65623 -0.46308,1.462776 0.83348,2.606254 1.38549,3.826806 5.11888,8.848683 10.20447,17.720103 15.34415,26.554583 1.03567,1.13563 2.6787,0.59127 4.01487,0.71879 10.22546,-0.0106 20.45429,0.0211 30.67764,-0.0159 1.50006,-0.33233 1.84761,-2.02561 2.6274,-3.11898 5.10143,-8.85875 10.23936,-17.699974 15.31798,-26.569673 0.46309,-1.462776 -0.83348,-2.606254 -1.38549,-3.826806 -5.12436,-8.857068 -10.21327,-17.737624 -15.3598,-26.580016 -0.67448,-0.773083 -1.79343,-0.754327 -2.72851,-0.679688 z" /><path
         id="use1004"
         style="fill:none;fill-opacity:0.443561;stroke:#afafaf;stroke-width:2.5;stroke-linejoin:bevel;stroke-opacity:0.235294"
         inkscape:transform-center-x="2.1614583e-06"
         inkscape:transform-center-y="-1.5e-06"
         d="m 416.06836,94.355469 c -10.66172,-0.01278 -21.32647,-0.03616 -31.98633,0.0039 -1.44985,0.327907 -1.77883,1.97194 -2.53901,3.030698 -5.11823,8.887593 -10.27297,17.757673 -15.36839,26.656223 -0.46308,1.46278 0.83348,2.60626 1.38549,3.82681 5.11888,8.84869 10.20447,17.7201 15.34415,26.55459 1.03567,1.13562 2.6787,0.59127 4.01487,0.71878 10.22546,-0.0106 20.45429,0.0211 30.67764,-0.0158 1.50006,-0.33233 1.84761,-2.02561 2.62741,-3.11898 5.10142,-8.85875 10.23936,-17.69998 15.31797,-26.56968 0.46309,-1.46278 -0.83348,-2.60626 -1.38549,-3.82681 -5.12436,-8.85707 -10.21327,-17.73762 -15.35979,-26.58001 -0.67449,-0.773082 -1.79344,-0.754327 -2.72852,-0.679687 z" /><path
         id="use1005"
         style="fill:#545454;fill-opacity:0.24;stroke:#afafaf;stroke-width:2.5;stroke-linejoin:bevel;stroke-opacity:0.235294"
         inkscape:transform-center-x="2.1614583e-06"
         inkscape:transform-center-y="-1.5e-06"
         d="m 475.21875,130.71094 c -10.66172,-0.0128 -21.32647,-0.0362 -31.98633,0.004 -1.44985,0.32791 -1.77883,1.97194 -2.53901,3.0307 -5.11823,8.8876 -10.27297,17.75768 -15.36838,26.65623 -0.46309,1.46278 0.83347,2.60626 1.38548,3.82681 5.11888,8.84868 10.20447,17.7201 15.34415,26.55459 1.03567,1.13562 2.6787,0.59127 4.01487,0.71878 10.22546,-0.0106 20.45429,0.0211 30.67764,-0.0158 1.50006,-0.33233 1.84761,-2.02561 2.62741,-3.11898 5.10142,-8.85875 10.23936,-17.69998 15.31797,-26.56968 0.46309,-1.46278 -0.83348,-2.60626 -1.38549,-3.82681 -5.12436,-8.85707 -10.21327,-17.73762 -15.35979,-26.58002 -0.67364,-0.77437 -1.79369,-0.75357 -2.72852,-0.67968 z" /><path
         id="use1007"
         style="fill:none;fill-opacity:0.443561;stroke:#afafaf;stroke-width:2.5;stroke-linejoin:bevel;stroke-opacity:0.235294"
         inkscape:transform-center-x="2.1614583e-06"
         inkscape:transform-center-y="-1.5e-06"
         d="m 356.91797,-14.705078 c -10.66172,-0.01277 -21.32647,-0.03616 -31.98633,0.0039 -1.44985,0.327907 -1.77883,1.97194 -2.53901,3.030698 -5.11823,8.887601 -10.27297,17.7576794 -15.36839,26.65623 -0.46308,1.462775 0.83348,2.606254 1.38549,3.826805 5.11888,8.848687 10.20447,17.720105 15.34415,26.554588 1.03567,1.135626 2.6787,0.591272 4.01487,0.718789 10.22546,-0.01057 20.45429,0.02113 30.67764,-0.01585 1.50006,-0.332329 1.84761,-2.025608 2.6274,-3.11898 5.10143,-8.858751 10.23936,-17.69998 15.31798,-26.569679 0.46309,-1.462776 -0.83348,-2.606254 -1.38549,-3.826806 -5.12436,-8.8570687 -10.21327,-17.7376247 -15.3598,-26.580017 -0.67448,-0.773082 -1.79343,-0.754326 -2.72851,-0.679687 z" /><path
         id="use1008"
         style="fill:none;fill-opacity:0.443561;stroke:#afafaf;stroke-width:2.5;stroke-linejoin:bevel;stroke-opacity:0.235294"
         inkscape:transform-center-x="2.1614583e-06"
         inkscape:transform-center-y="-1.5e-06"
         d="m 416.06836,21.648438 c -10.66172,-0.01277 -21.32647,-0.03616 -31.98633,0.0039 -1.44985,0.327906 -1.77883,1.97194 -2.53901,3.030698 -5.11823,8.887601 -10.27297,17.757679 -15.36839,26.656229 -0.46308,1.462776 0.83348,2.606254 1.38549,3.826806 5.11888,8.848687 10.20447,17.720105 15.34415,26.554588 1.03567,1.135626 2.6787,0.591271 4.01487,0.718788 10.22546,-0.01057 20.45429,0.02113 30.67764,-0.01585 1.50006,-0.332329 1.84761,-2.025609 2.62741,-3.118981 5.10142,-8.85875 10.23936,-17.69998 15.31797,-26.569679 0.46309,-1.462775 -0.83348,-2.606254 -1.38549,-3.826805 -5.12436,-8.857069 -10.21327,-17.737625 -15.35979,-26.580017 -0.67449,-0.773082 -1.79344,-0.754327 -2.72852,-0.679687 z" /><path
         id="use1009"
         style="fill:none;fill-opacity:0.443561;stroke:#afafaf;stroke-width:2.5;stroke-linejoin:bevel;stroke-opacity:0.235294"
         inkscape:transform-center-x="2.1614583e-06"
         inkscape:transform-center-y="-1.5e-06"
         d="m 475.21875,58.001953 c -10.66172,-0.01277 -21.32647,-0.03616 -31.98633,0.0039 -1.44985,0.327907 -1.77883,1.97194 -2.53901,3.030698 -5.11823,8.887601 -10.27297,17.75768 -15.36838,26.65623 -0.46309,1.462776 0.83347,2.606254 1.38548,3.826806 5.11888,8.848683 10.20447,17.720103 15.34415,26.554583 1.03567,1.13563 2.6787,0.59127 4.01487,0.71879 10.22546,-0.0106 20.45429,0.0211 30.67764,-0.0159 1.50006,-0.33233 1.84761,-2.02561 2.62741,-3.11898 5.10142,-8.85875 10.23936,-17.699974 15.31797,-26.569673 0.46309,-1.462776 -0.83348,-2.606254 -1.38549,-3.826806 -5.12436,-8.857068 -10.21327,-17.737624 -15.35979,-26.580016 -0.67449,-0.773083 -1.79344,-0.754327 -2.72852,-0.679688 z" /><path
         id="use1010"
         style="fill:none;fill-opacity:0.443561;stroke:#afafaf;stroke-width:2.5;stroke-linejoin:bevel;stroke-opacity:0.235294"
         inkscape:transform-center-x="2.1614583e-06"
         inkscape:transform-center-y="-1.5e-06"
         d="m 534.36914,94.355469 c -10.66172,-0.01278 -21.32647,-0.03616 -31.98633,0.0039 -1.44985,0.327907 -1.77883,1.97194 -2.53901,3.030698 -5.11823,8.887593 -10.27297,17.757673 -15.36838,26.656223 -0.46309,1.46278 0.83348,2.60626 1.38548,3.82681 5.11888,8.84869 10.20447,17.7201 15.34415,26.55459 1.03567,1.13562 2.6787,0.59127 4.01487,0.71878 10.22546,-0.0106 20.45429,0.0211 30.67764,-0.0158 1.50006,-0.33233 1.84761,-2.02561 2.62741,-3.11898 5.10142,-8.85875 10.23936,-17.69998 15.31797,-26.56968 0.46309,-1.46278 -0.83348,-2.60626 -1.38548,-3.82681 -5.12437,-8.85707 -10.21328,-17.73762 -15.3598,-26.58001 -0.67448,-0.773082 -1.79344,-0.754327 -2.72852,-0.679687 z" /><path
         id="use1011"
         style="fill:#888888;fill-opacity:0.497615;stroke:#afafaf;stroke-width:2.5;stroke-linejoin:bevel;stroke-opacity:0.235294"
         inkscape:transform-center-x="2.1614583e-06"
         inkscape:transform-center-y="-1.5e-06"
         d="m 593.51953,130.71094 c -10.66172,-0.0128 -21.32647,-0.0362 -31.98633,0.004 -1.44985,0.32791 -1.77883,1.97194 -2.53901,3.0307 -5.11823,8.8876 -10.27297,17.75768 -15.36838,26.65623 -0.46309,1.46278 0.83348,2.60626 1.38548,3.82681 5.11888,8.84868 10.20447,17.7201 15.34415,26.55459 1.03568,1.13562 2.6787,0.59127 4.01487,0.71878 10.22546,-0.0106 20.45429,0.0211 30.67765,-0.0158 1.50005,-0.33233 1.8476,-2.02561 2.6274,-3.11898 5.10142,-8.85875 10.23936,-17.69998 15.31797,-26.56968 0.46309,-1.46278 -0.83348,-2.60626 -1.38548,-3.82681 -5.12437,-8.85707 -10.21328,-17.73762 -15.3598,-26.58002 -0.67364,-0.77437 -1.79369,-0.75357 -2.72852,-0.67968 z" /><path
         id="use1013"
         style="fill:none;fill-opacity:0.443561;stroke:#afafaf;stroke-width:2.5;stroke-linejoin:bevel;stroke-opacity:0.235294"
         inkscape:transform-center-x="2.1614583e-06"
         inkscape:transform-center-y="-1.5e-06"
         d="m 475.21875,-14.705078 c -10.66172,-0.01277 -21.32647,-0.03616 -31.98633,0.0039 -1.44985,0.327907 -1.77883,1.97194 -2.53901,3.030698 -5.11823,8.887601 -10.27297,17.7576794 -15.36838,26.65623 -0.46309,1.462775 0.83347,2.606254 1.38548,3.826805 5.11888,8.848687 10.20447,17.720105 15.34415,26.554588 1.03567,1.135626 2.6787,0.591272 4.01487,0.718789 10.22546,-0.01057 20.45429,0.02113 30.67764,-0.01585 1.50006,-0.332329 1.84761,-2.025608 2.62741,-3.11898 5.10142,-8.858751 10.23936,-17.69998 15.31797,-26.569679 0.46309,-1.462776 -0.83348,-2.606254 -1.38549,-3.826806 -5.12436,-8.8570687 -10.21327,-17.7376247 -15.35979,-26.580017 -0.67449,-0.773082 -1.79344,-0.754326 -2.72852,-0.679687 z" /><path
         id="use1014"
         style="fill:none;fill-opacity:0.443561;stroke:#afafaf;stroke-width:2.5;stroke-linejoin:bevel;stroke-opacity:0.235294"
         inkscape:transform-center-x="2.1614583e-06"
         inkscape:transform-center-y="-1.5e-06"
         d="m 534.36914,21.648438 c -10.66172,-0.01277 -21.32647,-0.03616 -31.98633,0.0039 -1.44985,0.327906 -1.77883,1.97194 -2.53901,3.030698 -5.11823,8.887601 -10.27297,17.757679 -15.36838,26.656229 -0.46309,1.462776 0.83348,2.606254 1.38548,3.826806 5.11888,8.848687 10.20447,17.720105 15.34415,26.554588 1.03567,1.135626 2.6787,0.591271 4.01487,0.718788 10.22546,-0.01057 20.45429,0.02113 30.67764,-0.01585 1.50006,-0.332329 1.84761,-2.025609 2.62741,-3.118981 5.10142,-8.85875 10.23936,-17.69998 15.31797,-26.569679 0.46309,-1.462775 -0.83348,-2.606254 -1.38548,-3.826805 -5.12437,-8.857069 -10.21328,-17.737625 -15.3598,-26.580017 -0.67448,-0.773082 -1.79344,-0.754327 -2.72852,-0.679687 z" /><path
         id="use1015"
         style="fill:none;fill-opacity:0.443561;stroke:#afafaf;stroke-width:2.5;stroke-linejoin:bevel;stroke-opacity:0.235294"
         inkscape:transform-center-x="2.1614583e-06"
         inkscape:transform-center-y="-1.5e-06"
         d="m 593.51953,58.001953 c -10.66172,-0.01277 -21.32647,-0.03616 -31.98633,0.0039 -1.44985,0.327907 -1.77883,1.97194 -2.53901,3.030698 -5.11823,8.887601 -10.27297,17.75768 -15.36838,26.65623 -0.46309,1.462776 0.83348,2.606254 1.38548,3.826806 5.11888,8.848683 10.20447,17.720103 15.34415,26.554583 1.03568,1.13563 2.6787,0.59127 4.01487,0.71879 10.22546,-0.0106 20.45429,0.0211 30.67765,-0.0159 1.50005,-0.33233 1.8476,-2.02561 2.6274,-3.11898 5.10142,-8.85875 10.23936,-17.699974 15.31797,-26.569673 0.46309,-1.462776 -0.83348,-2.606254 -1.38548,-3.826806 -5.12437,-8.857068 -10.21328,-17.737624 -15.3598,-26.580016 -0.67448,-0.773083 -1.79343,-0.754327 -2.72852,-0.679688 z" /><path
         id="use1019"
         style="fill:none;fill-opacity:0.443561;stroke:#afafaf;stroke-width:2.5;stroke-linejoin:bevel;stroke-opacity:0.235294"
         inkscape:transform-center-x="2.1614583e-06"
         inkscape:transform-center-y="-1.5e-06"
         d="m 593.51953,-14.705078 c -10.66172,-0.01277 -21.32647,-0.03616 -31.98633,0.0039 -1.44985,0.327907 -1.77883,1.97194 -2.53901,3.030698 -5.11823,8.887601 -10.27297,17.7576794 -15.36838,26.65623 -0.46309,1.462775 0.83348,2.606254 1.38548,3.826805 5.11888,8.848687 10.20447,17.720105 15.34415,26.554588 1.03568,1.135626 2.6787,0.591272 4.01487,0.718789 10.22546,-0.01057 20.45429,0.02113 30.67765,-0.01585 1.50005,-0.332329 1.8476,-2.025608 2.6274,-3.11898 5.10142,-8.858751 10.23936,-17.69998 15.31797,-26.569679 0.46309,-1.462776 -0.83348,-2.606254 -1.38548,-3.826806 -5.12437,-8.8570687 -10.21328,-17.7376247 -15.3598,-26.580017 -0.67448,-0.773082 -1.79343,-0.754326 -2.72852,-0.679687 z" /><path
         id="use1024"
         style="fill:none;fill-opacity:0.443561;stroke:#afafaf;stroke-width:2.5;stroke-linejoin:bevel;stroke-opacity:0.235294"
         inkscape:transform-center-x="2.1614583e-06"
         inkscape:transform-center-y="-1.5e-06"
         d="m 2.0136719,202.25586 c -10.6617188,-0.0128 -21.3264679,-0.0362 -31.9863279,0.004 -1.449852,0.3279 -1.778831,1.97194 -2.539013,3.03069 -5.118229,8.8876 -10.272967,17.75768 -15.368384,26.65623 -0.463086,1.46278 0.83348,2.60626 1.385488,3.82681 5.118877,8.84869 10.204465,17.7201 15.344144,26.55459 1.035677,1.13562 2.678704,0.59127 4.014874,0.71879 10.22546,-0.0106 20.4542892,0.0211 30.6776428,-0.0159 1.5000589,-0.33233 1.8476074,-2.02561 2.627402,-3.11898 5.1014282,-8.85875 10.2393602,-17.69998 15.3179772,-26.56968 0.463086,-1.46278 -0.83348,-2.60625 -1.385488,-3.82681 C 14.97762,220.65849 9.8887143,211.77794 4.7421875,202.93555 4.0685528,202.16117 2.9485008,202.18197 2.0136719,202.25586 Z" /><path
         id="use1025"
         style="fill:none;fill-opacity:0.443561;stroke:#afafaf;stroke-width:2.5;stroke-linejoin:bevel;stroke-opacity:0.235294"
         inkscape:transform-center-x="2.1614583e-06"
         inkscape:transform-center-y="-1.5e-06"
         d="m 61.164062,238.60938 c -10.661718,-0.0128 -21.326467,-0.0362 -31.986328,0.004 -1.449852,0.32791 -1.77883,1.97194 -2.539012,3.0307 -5.11823,8.8876 -10.272967,17.75768 -15.368384,26.65623 -0.463086,1.46277 0.833479,2.60625 1.385488,3.8268 5.118877,8.84869 10.204464,17.72011 15.344144,26.55459 1.035676,1.13563 2.678703,0.59127 4.014874,0.71879 10.225459,-0.0106 20.454289,0.0211 30.677642,-0.0159 1.500059,-0.33232 1.847608,-2.0256 2.627402,-3.11898 5.101428,-8.85875 10.23936,-17.69998 15.317978,-26.56968 0.463086,-1.46277 -0.83348,-2.60625 -1.385489,-3.8268 -5.124367,-8.85707 -10.213272,-17.73763 -15.359799,-26.58002 -0.673635,-0.77438 -1.793687,-0.75357 -2.728516,-0.67968 z" /><path
         id="use1026"
         style="fill:none;fill-opacity:0.443561;stroke:#afafaf;stroke-width:2.5;stroke-linejoin:bevel;stroke-opacity:0.235294"
         inkscape:transform-center-x="2.1614583e-06"
         inkscape:transform-center-y="-1.5e-06"
         d="m 120.31445,274.96484 c -10.66172,-0.0128 -21.326465,-0.0362 -31.986325,0.004 -1.449852,0.32791 -1.77883,1.97194 -2.539012,3.0307 -5.11823,8.8876 -10.272967,17.75768 -15.368385,26.65623 -0.463086,1.46277 0.83348,2.60625 1.385489,3.8268 5.118877,8.84869 10.204464,17.72011 15.344143,26.55459 1.035677,1.13563 2.678704,0.59127 4.014874,0.71879 10.225456,-0.0106 20.454286,0.0211 30.677646,-0.0159 1.50006,-0.33233 1.8476,-2.02561 2.6274,-3.11898 5.10143,-8.85875 10.23936,-17.69998 15.31798,-26.56968 0.46308,-1.46277 -0.83348,-2.60625 -1.38549,-3.8268 -5.12437,-8.85707 -10.21327,-17.73763 -15.3598,-26.58002 -0.67364,-0.77438 -1.79369,-0.75357 -2.72852,-0.67969 z" /><path
         id="use1027"
         style="fill:#545454;fill-opacity:0.24;stroke:#afafaf;stroke-width:2.5;stroke-linejoin:bevel;stroke-opacity:0.235294"
         inkscape:transform-center-x="2.1614583e-06"
         inkscape:transform-center-y="-1.5e-06"
         d="m 179.46484,311.31836 c -10.66171,-0.0128 -21.32646,-0.0362 -31.98632,0.004 -1.44986,0.3279 -1.77883,1.97194 -2.53902,3.03069 -5.11823,8.8876 -10.27296,17.75768 -15.36838,26.65623 -0.46309,1.46278 0.83348,2.60626 1.38549,3.82681 5.11887,8.84869 10.20446,17.7201 15.34414,26.55459 1.03568,1.13562 2.6787,0.59127 4.01488,0.71879 10.22545,-0.0106 20.45428,0.0211 30.67764,-0.0159 1.50006,-0.33233 1.84761,-2.02561 2.6274,-3.11898 5.10143,-8.85875 10.23936,-17.69998 15.31798,-26.56968 0.46308,-1.46278 -0.83348,-2.60625 -1.38549,-3.82681 -5.12437,-8.85707 -10.21327,-17.73762 -15.3598,-26.58001 -0.67364,-0.77438 -1.79369,-0.75358 -2.72852,-0.67969 z" /><path
         id="use1029"
         style="fill:none;fill-opacity:0.443561;stroke:#afafaf;stroke-width:2.5;stroke-linejoin:bevel;stroke-opacity:0.235294"
         inkscape:transform-center-x="2.1614583e-06"
         inkscape:transform-center-y="-1.5e-06"
         d="m 61.164062,165.90234 c -10.661718,-0.0128 -21.326467,-0.0362 -31.986328,0.004 -1.449852,0.32791 -1.77883,1.97194 -2.539012,3.0307 -5.11823,8.8876 -10.272967,17.75768 -15.368384,26.65623 -0.463086,1.46277 0.833479,2.60625 1.385488,3.8268 5.118877,8.84869 10.204464,17.72011 15.344144,26.55459 1.035676,1.13563 2.678703,0.59127 4.014874,0.71879 10.225459,-0.0106 20.454289,0.0211 30.677642,-0.0159 1.500059,-0.33233 1.847608,-2.02561 2.627402,-3.11898 5.101428,-8.85875 10.23936,-17.69998 15.317978,-26.56968 0.463086,-1.46277 -0.83348,-2.60625 -1.385489,-3.8268 -5.124367,-8.85707 -10.213272,-17.73763 -15.359799,-26.58002 -0.673635,-0.77438 -1.793687,-0.75357 -2.728516,-0.67969 z" /><path
         id="use1030"
         style="fill:none;fill-opacity:0.443561;stroke:#afafaf;stroke-width:2.5;stroke-linejoin:bevel;stroke-opacity:0.235294"
         inkscape:transform-center-x="2.1614583e-06"
         inkscape:transform-center-y="-1.5e-06"
         d="m 120.31445,202.25586 c -10.66172,-0.0128 -21.326465,-0.0362 -31.986325,0.004 -1.449852,0.3279 -1.77883,1.97194 -2.539012,3.03069 -5.11823,8.8876 -10.272967,17.75768 -15.368385,26.65623 -0.463086,1.46278 0.83348,2.60626 1.385489,3.82681 5.118877,8.84869 10.204464,17.7201 15.344143,26.55459 1.035677,1.13562 2.678704,0.59127 4.014874,0.71879 10.225456,-0.0106 20.454286,0.0211 30.677646,-0.0159 1.50006,-0.33233 1.8476,-2.02561 2.6274,-3.11898 5.10143,-8.85875 10.23936,-17.69998 15.31798,-26.56968 0.46308,-1.46278 -0.83348,-2.60625 -1.38549,-3.82681 -5.12437,-8.85707 -10.21327,-17.73762 -15.3598,-26.58001 -0.67364,-0.77438 -1.79369,-0.75358 -2.72852,-0.67969 z" /><path
         id="use1031"
         style="fill:none;fill-opacity:0.443561;stroke:#afafaf;stroke-width:2.5;stroke-linejoin:bevel;stroke-opacity:0.235294"
         inkscape:transform-center-x="2.1614583e-06"
         inkscape:transform-center-y="-1.5e-06"
         d="m 179.46484,238.60938 c -10.66171,-0.0128 -21.32646,-0.0362 -31.98632,0.004 -1.44986,0.32791 -1.77883,1.97194 -2.53902,3.0307 -5.11823,8.8876 -10.27296,17.75768 -15.36838,26.65623 -0.46309,1.46277 0.83348,2.60625 1.38549,3.8268 5.11887,8.84869 10.20446,17.72011 15.34414,26.55459 1.03568,1.13563 2.6787,0.59127 4.01488,0.71879 10.22545,-0.0106 20.45428,0.0211 30.67764,-0.0159 1.50006,-0.33232 1.84761,-2.0256 2.6274,-3.11898 5.10143,-8.85875 10.23936,-17.69998 15.31798,-26.56968 0.46308,-1.46277 -0.83348,-2.60625 -1.38549,-3.8268 -5.12437,-8.85707 -10.21327,-17.73763 -15.3598,-26.58002 -0.67364,-0.77438 -1.79369,-0.75357 -2.72852,-0.67968 z" /><path
         id="use1032"
         style="fill:#545454;fill-opacity:0.24;stroke:#afafaf;stroke-width:2.5;stroke-linejoin:bevel;stroke-opacity:0.235294"
         inkscape:transform-center-x="2.1614583e-06"
         inkscape:transform-center-y="-1.5e-06"
         d="m 238.61523,274.96484 c -10.66171,-0.0128 -21.32646,-0.0362 -31.98632,0.004 -1.44986,0.32791 -1.77883,1.97194 -2.53902,3.0307 -5.11823,8.8876 -10.27296,17.75768 -15.36838,26.65623 -0.46309,1.46277 0.83348,2.60625 1.38549,3.8268 5.11887,8.84869 10.20446,17.72011 15.34414,26.55459 1.03568,1.13563 2.67871,0.59127 4.01488,0.71879 10.22546,-0.0106 20.45428,0.0211 30.67764,-0.0159 1.50006,-0.33233 1.84761,-2.02561 2.6274,-3.11898 5.10143,-8.85875 10.23936,-17.69998 15.31798,-26.56968 0.46308,-1.46277 -0.83348,-2.60625 -1.38549,-3.8268 -5.12437,-8.85707 -10.21327,-17.73763 -15.3598,-26.58002 -0.67363,-0.77438 -1.79369,-0.75357 -2.72852,-0.67969 z" /><path
         id="use1033"
         style="fill:#545454;fill-opacity:0.24;stroke:#afafaf;stroke-width:2.5;stroke-linejoin:bevel;stroke-opacity:0.235294"
         inkscape:transform-center-x="2.1614583e-06"
         inkscape:transform-center-y="-1.5e-06"
         d="m 297.76562,311.31836 c -10.66171,-0.0128 -21.32646,-0.0362 -31.98632,0.004 -1.44986,0.3279 -1.77883,1.97194 -2.53902,3.03069 -5.11823,8.8876 -10.27296,17.75768 -15.36838,26.65623 -0.46309,1.46278 0.83348,2.60626 1.38549,3.82681 5.11888,8.84869 10.20446,17.7201 15.34414,26.55459 1.03568,1.13562 2.67871,0.59127 4.01488,0.71879 10.22546,-0.0106 20.45429,0.0211 30.67764,-0.0159 1.50006,-0.33233 1.84761,-2.02561 2.6274,-3.11898 5.10143,-8.85875 10.23936,-17.69998 15.31798,-26.56968 0.46308,-1.46278 -0.83348,-2.60625 -1.38549,-3.82681 -5.12437,-8.85707 -10.21327,-17.73762 -15.3598,-26.58001 -0.67363,-0.77438 -1.79369,-0.75358 -2.72852,-0.67969 z" /><path
         id="use1035"
         style="fill:none;fill-opacity:0.443561;stroke:#afafaf;stroke-width:2.5;stroke-linejoin:bevel;stroke-opacity:0.235294"
         inkscape:transform-center-x="2.1614583e-06"
         inkscape:transform-center-y="-1.5e-06"
         d="m 179.46484,165.90234 c -10.66171,-0.0128 -21.32646,-0.0362 -31.98632,0.004 -1.44986,0.32791 -1.77883,1.97194 -2.53902,3.0307 -5.11823,8.8876 -10.27296,17.75768 -15.36838,26.65623 -0.46309,1.46277 0.83348,2.60625 1.38549,3.8268 5.11887,8.84869 10.20446,17.72011 15.34414,26.55459 1.03568,1.13563 2.6787,0.59127 4.01488,0.71879 10.22545,-0.0106 20.45428,0.0211 30.67764,-0.0159 1.50006,-0.33233 1.84761,-2.02561 2.6274,-3.11898 5.10143,-8.85875 10.23936,-17.69998 15.31798,-26.56968 0.46308,-1.46277 -0.83348,-2.60625 -1.38549,-3.8268 -5.12437,-8.85707 -10.21327,-17.73763 -15.3598,-26.58002 -0.67364,-0.77438 -1.79369,-0.75357 -2.72852,-0.67969 z" /><path
         id="use1036"
         style="fill:none;fill-opacity:0.443561;stroke:#afafaf;stroke-width:2.5;stroke-linejoin:bevel;stroke-opacity:0.235294"
         inkscape:transform-center-x="2.1614583e-06"
         inkscape:transform-center-y="-1.5e-06"
         d="m 238.61523,202.25586 c -10.66171,-0.0128 -21.32646,-0.0362 -31.98632,0.004 -1.44986,0.3279 -1.77883,1.97194 -2.53902,3.03069 -5.11823,8.8876 -10.27296,17.75768 -15.36838,26.65623 -0.46309,1.46278 0.83348,2.60626 1.38549,3.82681 5.11887,8.84869 10.20446,17.7201 15.34414,26.55459 1.03568,1.13562 2.67871,0.59127 4.01488,0.71879 10.22546,-0.0106 20.45428,0.0211 30.67764,-0.0159 1.50006,-0.33233 1.84761,-2.02561 2.6274,-3.11898 5.10143,-8.85875 10.23936,-17.69998 15.31798,-26.56968 0.46308,-1.46278 -0.83348,-2.60625 -1.38549,-3.82681 -5.12437,-8.85707 -10.21327,-17.73762 -15.3598,-26.58001 -0.67363,-0.77438 -1.79369,-0.75358 -2.72852,-0.67969 z" /><path
         id="use1037"
         style="fill:none;fill-opacity:0.443561;stroke:#afafaf;stroke-width:2.5;stroke-linejoin:bevel;stroke-opacity:0.235294"
         inkscape:transform-center-x="2.1614583e-06"
         inkscape:transform-center-y="-1.5e-06"
         d="m 297.76562,238.60938 c -10.66171,-0.0128 -21.32646,-0.0362 -31.98632,0.004 -1.44986,0.32791 -1.77883,1.97194 -2.53902,3.0307 -5.11823,8.8876 -10.27296,17.75768 -15.36838,26.65623 -0.46309,1.46277 0.83348,2.60625 1.38549,3.8268 5.11888,8.84869 10.20446,17.72011 15.34414,26.55459 1.03568,1.13563 2.67871,0.59127 4.01488,0.71879 10.22546,-0.0106 20.45429,0.0211 30.67764,-0.0159 1.50006,-0.33232 1.84761,-2.0256 2.6274,-3.11898 5.10143,-8.85875 10.23936,-17.69998 15.31798,-26.56968 0.46308,-1.46277 -0.83348,-2.60625 -1.38549,-3.8268 -5.12437,-8.85707 -10.21327,-17.73763 -15.3598,-26.58002 -0.67363,-0.77438 -1.79369,-0.75357 -2.72852,-0.67968 z" /><path
         id="use1038"
         style="fill:none;fill-opacity:0.443561;stroke:#afafaf;stroke-width:2.5;stroke-linejoin:bevel;stroke-opacity:0.235294"
         inkscape:transform-center-x="2.1614583e-06"
         inkscape:transform-center-y="-1.5e-06"
         d="m 356.91797,274.96484 c -10.66172,-0.0128 -21.32647,-0.0362 -31.98633,0.004 -1.44985,0.32791 -1.77883,1.97194 -2.53901,3.0307 -5.11823,8.8876 -10.27297,17.75768 -15.36839,26.65623 -0.46308,1.46277 0.83348,2.60625 1.38549,3.8268 5.11888,8.84869 10.20447,17.72011 15.34415,26.55459 1.03567,1.13563 2.6787,0.59127 4.01487,0.71879 10.22546,-0.0106 20.45429,0.0211 30.67764,-0.0159 1.50006,-0.33233 1.84761,-2.02561 2.6274,-3.11898 5.10143,-8.85875 10.23936,-17.69998 15.31798,-26.56968 0.46309,-1.46277 -0.83348,-2.60625 -1.38549,-3.8268 -5.12436,-8.85707 -10.21327,-17.73763 -15.3598,-26.58002 -0.67363,-0.77438 -1.79368,-0.75357 -2.72851,-0.67969 z" /><path
         id="use1039"
         style="fill:none;fill-opacity:0.443561;stroke:#afafaf;stroke-width:2.5;stroke-linejoin:bevel;stroke-opacity:0.235294"
         inkscape:transform-center-x="2.1614583e-06"
         inkscape:transform-center-y="-1.5e-06"
         d="m 416.06836,311.31836 c -10.66172,-0.0128 -21.32647,-0.0362 -31.98633,0.004 -1.44985,0.3279 -1.77883,1.97194 -2.53901,3.03069 -5.11823,8.8876 -10.27297,17.75768 -15.36839,26.65623 -0.46308,1.46278 0.83348,2.60626 1.38549,3.82681 5.11888,8.84869 10.20447,17.7201 15.34415,26.55459 1.03567,1.13562 2.6787,0.59127 4.01487,0.71879 10.22546,-0.0106 20.45429,0.0211 30.67764,-0.0159 1.50006,-0.33233 1.84761,-2.02561 2.62741,-3.11898 5.10142,-8.85875 10.23936,-17.69998 15.31797,-26.56968 0.46309,-1.46278 -0.83348,-2.60625 -1.38549,-3.82681 -5.12436,-8.85707 -10.21327,-17.73762 -15.35979,-26.58001 -0.67364,-0.77438 -1.79369,-0.75358 -2.72852,-0.67969 z" /><path
         id="use1041"
         style="fill:none;fill-opacity:0.443561;stroke:#afafaf;stroke-width:2.5;stroke-linejoin:bevel;stroke-opacity:0.235294"
         inkscape:transform-center-x="2.1614583e-06"
         inkscape:transform-center-y="-1.5e-06"
         d="m 297.76562,165.90234 c -10.66171,-0.0128 -21.32646,-0.0362 -31.98632,0.004 -1.44986,0.32791 -1.77883,1.97194 -2.53902,3.0307 -5.11823,8.8876 -10.27296,17.75768 -15.36838,26.65623 -0.46309,1.46277 0.83348,2.60625 1.38549,3.8268 5.11888,8.84869 10.20446,17.72011 15.34414,26.55459 1.03568,1.13563 2.67871,0.59127 4.01488,0.71879 10.22546,-0.0106 20.45429,0.0211 30.67764,-0.0159 1.50006,-0.33233 1.84761,-2.02561 2.6274,-3.11898 5.10143,-8.85875 10.23936,-17.69998 15.31798,-26.56968 0.46308,-1.46277 -0.83348,-2.60625 -1.38549,-3.8268 -5.12437,-8.85707 -10.21327,-17.73763 -15.3598,-26.58002 -0.67363,-0.77438 -1.79369,-0.75357 -2.72852,-0.67969 z" /><path
         id="use1042"
         style="fill:none;fill-opacity:0.443561;stroke:#afafaf;stroke-width:2.5;stroke-linejoin:bevel;stroke-opacity:0.235294"
         inkscape:transform-center-x="2.1614583e-06"
         inkscape:transform-center-y="-1.5e-06"
         d="m 356.91797,202.25586 c -10.66172,-0.0128 -21.32647,-0.0362 -31.98633,0.004 -1.44985,0.3279 -1.77883,1.97194 -2.53901,3.03069 -5.11823,8.8876 -10.27297,17.75768 -15.36839,26.65623 -0.46308,1.46278 0.83348,2.60626 1.38549,3.82681 5.11888,8.84869 10.20447,17.7201 15.34415,26.55459 1.03567,1.13562 2.6787,0.59127 4.01487,0.71879 10.22546,-0.0106 20.45429,0.0211 30.67764,-0.0159 1.50006,-0.33233 1.84761,-2.02561 2.6274,-3.11898 5.10143,-8.85875 10.23936,-17.69998 15.31798,-26.56968 0.46309,-1.46278 -0.83348,-2.60625 -1.38549,-3.82681 -5.12436,-8.85707 -10.21327,-17.73762 -15.3598,-26.58001 -0.67363,-0.77438 -1.79368,-0.75358 -2.72851,-0.67969 z" /><path
         id="use1043"
         style="fill:none;fill-opacity:0.443561;stroke:#afafaf;stroke-width:2.5;stroke-linejoin:bevel;stroke-opacity:0.235294"
         inkscape:transform-center-x="2.1614583e-06"
         inkscape:transform-center-y="-1.5e-06"
         d="m 416.06836,238.60938 c -10.66172,-0.0128 -21.32647,-0.0362 -31.98633,0.004 -1.44985,0.32791 -1.77883,1.97194 -2.53901,3.0307 -5.11823,8.8876 -10.27297,17.75768 -15.36839,26.65623 -0.46308,1.46277 0.83348,2.60625 1.38549,3.8268 5.11888,8.84869 10.20447,17.72011 15.34415,26.55459 1.03567,1.13563 2.6787,0.59127 4.01487,0.71879 10.22546,-0.0106 20.45429,0.0211 30.67764,-0.0159 1.50006,-0.33232 1.84761,-2.0256 2.62741,-3.11898 5.10142,-8.85875 10.23936,-17.69998 15.31797,-26.56968 0.46309,-1.46277 -0.83348,-2.60625 -1.38549,-3.8268 -5.12436,-8.85707 -10.21327,-17.73763 -15.35979,-26.58002 -0.67364,-0.77438 -1.79369,-0.75357 -2.72852,-0.67968 z" /><path
         id="use1044"
         style="fill:none;fill-opacity:0.443561;stroke:#afafaf;stroke-width:2.5;stroke-linejoin:bevel;stroke-opacity:0.235294"
         inkscape:transform-center-x="2.1614583e-06"
         inkscape:transform-center-y="-1.5e-06"
         d="m 475.21875,274.96484 c -10.66172,-0.0128 -21.32647,-0.0362 -31.98633,0.004 -1.44985,0.32791 -1.77883,1.97194 -2.53901,3.0307 -5.11823,8.8876 -10.27297,17.75768 -15.36838,26.65623 -0.46309,1.46277 0.83347,2.60625 1.38548,3.8268 5.11888,8.84869 10.20447,17.72011 15.34415,26.55459 1.03567,1.13563 2.6787,0.59127 4.01487,0.71879 10.22546,-0.0106 20.45429,0.0211 30.67764,-0.0159 1.50006,-0.33233 1.84761,-2.02561 2.62741,-3.11898 5.10142,-8.85875 10.23936,-17.69998 15.31797,-26.56968 0.46309,-1.46277 -0.83348,-2.60625 -1.38549,-3.8268 -5.12436,-8.85707 -10.21327,-17.73763 -15.35979,-26.58002 -0.67364,-0.77438 -1.79369,-0.75357 -2.72852,-0.67969 z" /><path
         id="use1045"
         style="fill:none;fill-opacity:0.443561;stroke:#afafaf;stroke-width:2.5;stroke-linejoin:bevel;stroke-opacity:0.235294"
         inkscape:transform-center-x="2.1614583e-06"
         inkscape:transform-center-y="-1.5e-06"
         d="m 534.36914,311.31836 c -10.66172,-0.0128 -21.32647,-0.0362 -31.98633,0.004 -1.44985,0.3279 -1.77883,1.97194 -2.53901,3.03069 -5.11823,8.8876 -10.27297,17.75768 -15.36838,26.65623 -0.46309,1.46278 0.83348,2.60626 1.38548,3.82681 5.11888,8.84869 10.20447,17.7201 15.34415,26.55459 1.03567,1.13562 2.6787,0.59127 4.01487,0.71879 10.22546,-0.0106 20.45429,0.0211 30.67764,-0.0159 1.50006,-0.33233 1.84761,-2.02561 2.62741,-3.11898 5.10142,-8.85875 10.23936,-17.69998 15.31797,-26.56968 0.46309,-1.46278 -0.83348,-2.60625 -1.38548,-3.82681 -5.12437,-8.85707 -10.21328,-17.73762 -15.3598,-26.58001 -0.67364,-0.77438 -1.79369,-0.75358 -2.72852,-0.67969 z" /><path
         id="use1047"
         style="fill:none;fill-opacity:0.443561;stroke:#afafaf;stroke-width:2.5;stroke-linejoin:bevel;stroke-opacity:0.235294"
         inkscape:transform-center-x="2.1614583e-06"
         inkscape:transform-center-y="-1.5e-06"
         d="m 416.06836,165.90234 c -10.66172,-0.0128 -21.32647,-0.0362 -31.98633,0.004 -1.44985,0.32791 -1.77883,1.97194 -2.53901,3.0307 -5.11823,8.8876 -10.27297,17.75768 -15.36839,26.65623 -0.46308,1.46277 0.83348,2.60625 1.38549,3.8268 5.11888,8.84869 10.20447,17.72011 15.34415,26.55459 1.03567,1.13563 2.6787,0.59127 4.01487,0.71879 10.22546,-0.0106 20.45429,0.0211 30.67764,-0.0159 1.50006,-0.33233 1.84761,-2.02561 2.62741,-3.11898 5.10142,-8.85875 10.23936,-17.69998 15.31797,-26.56968 0.46309,-1.46277 -0.83348,-2.60625 -1.38549,-3.8268 -5.12436,-8.85707 -10.21327,-17.73763 -15.35979,-26.58002 -0.67364,-0.77438 -1.79369,-0.75357 -2.72852,-0.67969 z" /><path
         id="use1048"
         style="fill:#545454;fill-opacity:0.24;stroke:#afafaf;stroke-width:2.5;stroke-linejoin:bevel;stroke-opacity:0.235294"
         inkscape:transform-center-x="2.1614583e-06"
         inkscape:transform-center-y="-1.5e-06"
         d="m 475.21875,202.25586 c -10.66172,-0.0128 -21.32647,-0.0362 -31.98633,0.004 -1.44985,0.3279 -1.77883,1.97194 -2.53901,3.03069 -5.11823,8.8876 -10.27297,17.75768 -15.36838,26.65623 -0.46309,1.46278 0.83347,2.60626 1.38548,3.82681 5.11888,8.84869 10.20447,17.7201 15.34415,26.55459 1.03567,1.13562 2.6787,0.59127 4.01487,0.71879 10.22546,-0.0106 20.45429,0.0211 30.67764,-0.0159 1.50006,-0.33233 1.84761,-2.02561 2.62741,-3.11898 5.10142,-8.85875 10.23936,-17.69998 15.31797,-26.56968 0.46309,-1.46278 -0.83348,-2.60625 -1.38549,-3.82681 -5.12436,-8.85707 -10.21327,-17.73762 -15.35979,-26.58001 -0.67364,-0.77438 -1.79369,-0.75358 -2.72852,-0.67969 z" /><path
         id="use1049"
         style="fill:none;fill-opacity:0.443561;stroke:#afafaf;stroke-width:2.5;stroke-linejoin:bevel;stroke-opacity:0.235294"
         inkscape:transform-center-x="2.1614583e-06"
         inkscape:transform-center-y="-1.5e-06"
         d="m 534.36914,238.60938 c -10.66172,-0.0128 -21.32647,-0.0362 -31.98633,0.004 -1.44985,0.32791 -1.77883,1.97194 -2.53901,3.0307 -5.11823,8.8876 -10.27297,17.75768 -15.36838,26.65623 -0.46309,1.46277 0.83348,2.60625 1.38548,3.8268 5.11888,8.84869 10.20447,17.72011 15.34415,26.55459 1.03567,1.13563 2.6787,0.59127 4.01487,0.71879 10.22546,-0.0106 20.45429,0.0211 30.67764,-0.0159 1.50006,-0.33232 1.84761,-2.0256 2.62741,-3.11898 5.10142,-8.85875 10.23936,-17.69998 15.31797,-26.56968 0.46309,-1.46277 -0.83348,-2.60625 -1.38548,-3.8268 -5.12437,-8.85707 -10.21328,-17.73763 -15.3598,-26.58002 -0.67364,-0.77438 -1.79369,-0.75357 -2.72852,-0.67968 z" /><path
         id="use1050"
         style="fill:none;fill-opacity:0.443561;stroke:#afafaf;stroke-width:2.5;stroke-linejoin:bevel;stroke-opacity:0.235294"
         inkscape:transform-center-x="2.1614583e-06"
         inkscape:transform-center-y="-1.5e-06"
         d="m 593.51953,274.96484 c -10.66172,-0.0128 -21.32647,-0.0362 -31.98633,0.004 -1.44985,0.32791 -1.77883,1.97194 -2.53901,3.0307 -5.11823,8.8876 -10.27297,17.75768 -15.36838,26.65623 -0.46309,1.46277 0.83348,2.60625 1.38548,3.8268 5.11888,8.84869 10.20447,17.72011 15.34415,26.55459 1.03568,1.13563 2.6787,0.59127 4.01487,0.71879 10.22546,-0.0106 20.45429,0.0211 30.67765,-0.0159 1.50005,-0.33233 1.8476,-2.02561 2.6274,-3.11898 5.10142,-8.85875 10.23936,-17.69998 15.31797,-26.56968 0.46309,-1.46277 -0.83348,-2.60625 -1.38548,-3.8268 -5.12437,-8.85707 -10.21328,-17.73763 -15.3598,-26.58002 -0.67364,-0.77438 -1.79369,-0.75357 -2.72852,-0.67969 z" /><path
         id="use1053"
         style="fill:#888888;fill-opacity:0.497615;stroke:#afafaf;stroke-width:2.5;stroke-linejoin:bevel;stroke-opacity:0.235294"
         inkscape:transform-center-x="2.1614583e-06"
         inkscape:transform-center-y="-1.5e-06"
         d="m 534.36914,165.90234 c -10.66172,-0.0128 -21.32647,-0.0362 -31.98633,0.004 -1.44985,0.32791 -1.77883,1.97194 -2.53901,3.0307 -5.11823,8.8876 -10.27297,17.75768 -15.36838,26.65623 -0.46309,1.46277 0.83348,2.60625 1.38548,3.8268 5.11888,8.84869 10.20447,17.72011 15.34415,26.55459 1.03567,1.13563 2.6787,0.59127 4.01487,0.71879 10.22546,-0.0106 20.45429,0.0211 30.67764,-0.0159 1.50006,-0.33233 1.84761,-2.02561 2.62741,-3.11898 5.10142,-8.85875 10.23936,-17.69998 15.31797,-26.56968 0.46309,-1.46277 -0.83348,-2.60625 -1.38548,-3.8268 -5.12437,-8.85707 -10.21328,-17.73763 -15.3598,-26.58002 -0.67364,-0.77438 -1.79369,-0.75357 -2.72852,-0.67969 z" /><path
         id="use1054"
         style="fill:#888888;fill-opacity:0.497615;stroke:#afafaf;stroke-width:2.5;stroke-linejoin:bevel;stroke-opacity:0.235294"
         inkscape:transform-center-x="2.1614583e-06"
         inkscape:transform-center-y="-1.5e-06"
         d="m 593.51953,202.25586 c -10.66172,-0.0128 -21.32647,-0.0362 -31.98633,0.004 -1.44985,0.3279 -1.77883,1.97194 -2.53901,3.03069 -5.11823,8.8876 -10.27297,17.75768 -15.36838,26.65623 -0.46309,1.46278 0.83348,2.60626 1.38548,3.82681 5.11888,8.84869 10.20447,17.7201 15.34415,26.55459 1.03568,1.13562 2.6787,0.59127 4.01487,0.71879 10.22546,-0.0106 20.45429,0.0211 30.67765,-0.0159 1.50005,-0.33233 1.8476,-2.02561 2.6274,-3.11898 5.10142,-8.85875 10.23936,-17.69998 15.31797,-26.56968 0.46309,-1.46278 -0.83348,-2.60625 -1.38548,-3.82681 -5.12437,-8.85707 -10.21328,-17.73762 -15.3598,-26.58001 -0.67364,-0.77438 -1.79369,-0.75358 -2.72852,-0.67969 z" /><path
         id="path1058"
         style="fill:none;fill-opacity:0.443561;stroke:#afafaf;stroke-width:2.5;stroke-linejoin:bevel;stroke-opacity:0.235294"
         inkscape:transform-center-x="2.1614583e-06"
         inkscape:transform-center-y="-1.5e-06"
         d="m 1.9296875,57.085938 c -10.6617187,-0.01277 -21.3264675,-0.03616 -31.9863285,0.0039 -1.449852,0.327906 -1.77883,1.97194 -2.539012,3.030698 -5.11823,8.887601 -10.272967,17.757679 -15.368384,26.656229 -0.463086,1.462776 0.833479,2.606254 1.385488,3.826806 5.118877,8.848687 10.204464,17.720099 15.344144,26.554589 1.035676,1.13562 2.678703,0.59127 4.014874,0.71878 10.225459,-0.0106 20.4542889,0.0211 30.6776424,-0.0158 1.5000589,-0.33233 1.8476074,-2.02561 2.6274021,-3.11898 C 11.186941,105.88338 16.324873,97.042146 21.403491,88.172447 21.866577,86.709672 20.570011,85.566193 20.018002,84.345642 14.893635,75.488573 9.8047299,66.608017 4.6582031,57.765625 3.9837224,56.992543 2.8647718,57.011298 1.9296875,57.085938 Z" /><path
         id="path1059"
         style="fill:#888888;fill-opacity:0.497615;stroke:#afafaf;stroke-width:2.5;stroke-linejoin:bevel;stroke-opacity:0.235294"
         inkscape:transform-center-x="2.1614583e-06"
         inkscape:transform-center-y="-1.5e-06"
         d="m 61.080078,93.439453 c -10.661719,-0.01278 -21.326468,-0.03616 -31.986328,0.0039 -1.449852,0.327907 -1.77883,1.97194 -2.539012,3.030698 -5.11823,8.887599 -10.272967,17.757679 -15.368385,26.656229 -0.463086,1.46277 0.83348,2.60625 1.385489,3.8268 5.118877,8.84869 10.204464,17.72011 15.344143,26.55459 1.035677,1.13563 2.678704,0.59127 4.014874,0.71879 10.22546,-0.0106 20.454289,0.0211 30.677643,-0.0159 1.500059,-0.33233 1.847607,-2.02561 2.627402,-3.11898 5.101428,-8.85875 10.23936,-17.69998 15.317977,-26.56968 0.463086,-1.46277 -0.83348,-2.60625 -1.385488,-3.8268 -5.124367,-8.85707 -10.213272,-17.73763 -15.359799,-26.580015 -0.674481,-0.773083 -1.793432,-0.754327 -2.728516,-0.679688 z" /><path
         id="path1060"
         style="fill:#545454;fill-opacity:0.24;stroke:#afafaf;stroke-width:2.5;stroke-linejoin:bevel;stroke-opacity:0.235294"
         inkscape:transform-center-x="2.1614583e-06"
         inkscape:transform-center-y="-1.5e-06"
         d="m 120.23242,129.82031 c -10.66172,-0.0128 -21.326466,-0.0362 -31.986326,0.004 -1.449852,0.32791 -1.778831,1.97194 -2.539013,3.0307 -5.118229,8.8876 -10.272967,17.75768 -15.368384,26.65623 -0.463086,1.46277 0.83348,2.60625 1.385488,3.8268 5.118877,8.84869 10.204465,17.72011 15.344144,26.55459 1.035677,1.13563 2.678704,0.59127 4.014874,0.71879 10.225457,-0.0106 20.454287,0.0211 30.677647,-0.0159 1.50005,-0.33233 1.8476,-2.02561 2.6274,-3.11898 5.10143,-8.85875 10.23936,-17.69998 15.31797,-26.56968 0.46309,-1.46277 -0.83347,-2.60625 -1.38548,-3.8268 -5.12437,-8.85707 -10.21328,-17.73763 -15.3598,-26.58002 -0.67364,-0.77438 -1.79369,-0.75357 -2.72852,-0.67969 z" /><path
         id="path1061"
         style="fill:none;fill-opacity:0.443561;stroke:#afafaf;stroke-width:2.5;stroke-linejoin:bevel;stroke-opacity:0.235294"
         inkscape:transform-center-x="2.1614583e-06"
         inkscape:transform-center-y="-1.5e-06"
         d="m 1.9296875,129.82031 c -10.6617187,-0.0128 -21.3264675,-0.0362 -31.9863285,0.004 -1.449852,0.32791 -1.77883,1.97194 -2.539012,3.0307 -5.11823,8.8876 -10.272967,17.75768 -15.368384,26.65623 -0.463086,1.46277 0.833479,2.60625 1.385488,3.8268 5.118877,8.84869 10.204464,17.72011 15.344144,26.55459 1.035676,1.13563 2.678703,0.59127 4.014874,0.71879 10.225459,-0.0106 20.4542889,0.0211 30.6776424,-0.0159 1.5000589,-0.33233 1.8476074,-2.02561 2.6274021,-3.11898 5.1014275,-8.85875 10.2393595,-17.69998 15.3179775,-26.56968 0.463086,-1.46277 -0.83348,-2.60625 -1.385489,-3.8268 C 14.893635,148.22295 9.8047299,139.34239 4.6582031,130.5 3.9845685,129.72562 2.8645164,129.74643 1.9296875,129.82031 Z" /><path
         id="path1062"
         style="fill:none;fill-opacity:0.443561;stroke:#afafaf;stroke-width:2.5;stroke-linejoin:bevel;stroke-opacity:0.235294"
         inkscape:transform-center-x="2.1614583e-06"
         inkscape:transform-center-y="-1.5e-06"
         d="m 2.0136719,274.96484 c -10.6617188,-0.0128 -21.3264679,-0.0362 -31.9863279,0.004 -1.449852,0.32791 -1.778831,1.97194 -2.539013,3.0307 -5.118229,8.8876 -10.272967,17.75768 -15.368384,26.65623 -0.463086,1.46277 0.83348,2.60625 1.385488,3.8268 5.118877,8.84869 10.204465,17.72011 15.344144,26.55459 1.035677,1.13563 2.678704,0.59127 4.014874,0.71879 10.22546,-0.0106 20.4542892,0.0211 30.6776428,-0.0159 1.5000589,-0.33233 1.8476074,-2.02561 2.627402,-3.11898 5.1014282,-8.85875 10.2393602,-17.69998 15.3179772,-26.56968 0.463086,-1.46277 -0.83348,-2.60625 -1.385488,-3.8268 C 14.97762,293.36748 9.8887143,284.48692 4.7421875,275.64453 4.0677068,274.87145 2.9487562,274.8902 2.0136719,274.96484 Z" /><path
         id="path1063"
         style="fill:none;fill-opacity:0.443561;stroke:#afafaf;stroke-width:2.5;stroke-linejoin:bevel;stroke-opacity:0.235294"
         inkscape:transform-center-x="2.1614583e-06"
         inkscape:transform-center-y="-1.5e-06"
         d="m 61.164062,311.31836 c -10.661718,-0.0128 -21.326467,-0.0362 -31.986328,0.004 -1.449852,0.3279 -1.77883,1.97194 -2.539012,3.03069 -5.11823,8.8876 -10.272967,17.75768 -15.368384,26.65623 -0.463086,1.46278 0.833479,2.60626 1.385488,3.82681 5.118877,8.84869 10.204464,17.7201 15.344144,26.55459 1.035676,1.13562 2.678703,0.59127 4.014874,0.71879 10.225459,-0.0106 20.454289,0.0211 30.677642,-0.0159 1.500059,-0.33233 1.847608,-2.02561 2.627402,-3.11898 5.101428,-8.85875 10.23936,-17.69998 15.317978,-26.56968 0.463086,-1.46278 -0.83348,-2.60625 -1.385489,-3.82681 -5.124367,-8.85707 -10.213272,-17.73762 -15.359799,-26.58001 -0.673635,-0.77438 -1.793687,-0.75358 -2.728516,-0.67969 z" /><path
         id="path1064"
         style="fill:none;fill-opacity:0.443561;stroke:#afafaf;stroke-width:2.5;stroke-linejoin:bevel;stroke-opacity:0.235294"
         inkscape:transform-center-x="2.1614583e-06"
         inkscape:transform-center-y="-1.5e-06"
         d="m 2.0136719,-84.984375 c -10.6617188,-0.01278 -21.3264679,-0.03616 -31.9863279,0.0039 -1.449852,0.327907 -1.778831,1.97194 -2.539013,3.030698 -5.118229,8.887601 -10.272967,17.75768 -15.368384,26.65623 -0.463086,1.462776 0.83348,2.606254 1.385488,3.826805 5.118877,8.848687 10.204465,17.720106 15.344144,26.554589 1.035677,1.135625 2.678704,0.591271 4.014874,0.718788 10.22546,-0.01057 20.4542892,0.02113 30.6776428,-0.01585 1.5000589,-0.332328 1.8476074,-2.025608 2.627402,-3.11898 5.1014282,-8.858751 10.2393602,-17.69998 15.3179772,-26.569679 0.463086,-1.462776 -0.83348,-2.606254 -1.385488,-3.826806 C 14.97762,-66.58174 9.8887143,-75.462296 4.7421875,-84.304688 4.0677068,-85.07777 2.9487562,-85.059014 2.0136719,-84.984375 Z" /><path
         id="path1065"
         style="fill:none;fill-opacity:0.443561;stroke:#afafaf;stroke-width:2.5;stroke-linejoin:bevel;stroke-opacity:0.235294"
         inkscape:transform-center-x="2.1614583e-06"
         inkscape:transform-center-y="-1.5e-06"
         d="m 61.164062,-48.630859 c -10.661718,-0.01277 -21.326467,-0.03616 -31.986328,0.0039 -1.449852,0.327906 -1.77883,1.97194 -2.539012,3.030698 -5.11823,8.887601 -10.272967,17.757679 -15.368384,26.65623 -0.463086,1.462775 0.833479,2.606253 1.385488,3.826805 5.118877,8.8486871 10.204464,17.7201051 15.344144,26.554588 1.035676,1.135626 2.678703,0.591271 4.014874,0.718788 10.225459,-0.01057 20.454289,0.02113 30.677642,-0.01585 1.500059,-0.332329 1.847608,-2.025609 2.627402,-3.1189807 5.101428,-8.85875047 10.23936,-17.69998 15.317978,-26.5696793 0.463086,-1.462775 -0.83348,-2.606253 -1.385489,-3.826805 -5.124367,-8.857069 -10.213272,-17.737625 -15.359799,-26.580017 -0.674481,-0.773082 -1.793431,-0.754327 -2.728516,-0.679687 z" /><path
         id="path1066"
         style="fill:none;fill-opacity:0.443561;stroke:#afafaf;stroke-width:2.5;stroke-linejoin:bevel;stroke-opacity:0.235294"
         inkscape:transform-center-x="2.1614583e-06"
         inkscape:transform-center-y="-1.5e-06"
         d="m 120.31445,-84.984375 c -10.66172,-0.01278 -21.326465,-0.03616 -31.986325,0.0039 -1.449852,0.327907 -1.77883,1.97194 -2.539012,3.030698 -5.11823,8.887601 -10.272967,17.75768 -15.368385,26.65623 -0.463086,1.462776 0.83348,2.606254 1.385489,3.826805 5.118877,8.848687 10.204464,17.720106 15.344143,26.554589 1.035677,1.135625 2.678704,0.591271 4.014874,0.718788 10.225456,-0.01057 20.454286,0.02113 30.677646,-0.01585 1.50006,-0.332328 1.8476,-2.025608 2.6274,-3.11898 5.10143,-8.858751 10.23936,-17.69998 15.31798,-26.569679 0.46308,-1.462776 -0.83348,-2.606254 -1.38549,-3.826806 -5.12437,-8.857069 -10.21327,-17.737625 -15.3598,-26.580017 -0.67448,-0.773082 -1.79343,-0.754326 -2.72852,-0.679687 z" /><path
         id="path1067"
         style="fill:none;fill-opacity:0.443561;stroke:#afafaf;stroke-width:2.5;stroke-linejoin:bevel;stroke-opacity:0.235294"
         inkscape:transform-center-x="2.1614583e-06"
         inkscape:transform-center-y="-1.5e-06"
         d="m 179.46484,-48.630859 c -10.66171,-0.01277 -21.32646,-0.03616 -31.98632,0.0039 -1.44986,0.327906 -1.77883,1.97194 -2.53902,3.030698 -5.11823,8.887601 -10.27296,17.757679 -15.36838,26.65623 -0.46309,1.462775 0.83348,2.606253 1.38549,3.826805 5.11887,8.8486871 10.20446,17.7201051 15.34414,26.554588 1.03568,1.135626 2.6787,0.591271 4.01488,0.718788 10.22545,-0.01057 20.45428,0.02113 30.67764,-0.01585 1.50006,-0.332329 1.84761,-2.025609 2.6274,-3.1189807 5.10143,-8.85875047 10.23936,-17.69998 15.31798,-26.5696793 0.46308,-1.462775 -0.83348,-2.606253 -1.38549,-3.826805 -5.12437,-8.857069 -10.21327,-17.737625 -15.3598,-26.580017 -0.67448,-0.773082 -1.79343,-0.754327 -2.72852,-0.679687 z" /><path
         id="path1068"
         style="fill:none;fill-opacity:0.443561;stroke:#afafaf;stroke-width:2.5;stroke-linejoin:bevel;stroke-opacity:0.235294"
         inkscape:transform-center-x="2.1614583e-06"
         inkscape:transform-center-y="-1.5e-06"
         d="m 238.61523,-84.984375 c -10.66171,-0.01278 -21.32646,-0.03616 -31.98632,0.0039 -1.44986,0.327907 -1.77883,1.97194 -2.53902,3.030698 -5.11823,8.887601 -10.27296,17.75768 -15.36838,26.65623 -0.46309,1.462776 0.83348,2.606254 1.38549,3.826805 5.11887,8.848687 10.20446,17.720106 15.34414,26.554589 1.03568,1.135625 2.67871,0.591271 4.01488,0.718788 10.22546,-0.01057 20.45428,0.02113 30.67764,-0.01585 1.50006,-0.332328 1.84761,-2.025608 2.6274,-3.11898 5.10143,-8.858751 10.23936,-17.69998 15.31798,-26.569679 0.46308,-1.462776 -0.83348,-2.606254 -1.38549,-3.826806 -5.12437,-8.857069 -10.21327,-17.737625 -15.3598,-26.580017 -0.67448,-0.773082 -1.79343,-0.754326 -2.72852,-0.679687 z" /><path
         id="path1069"
         style="fill:none;fill-opacity:0.443561;stroke:#afafaf;stroke-width:2.5;stroke-linejoin:bevel;stroke-opacity:0.235294"
         inkscape:transform-center-x="2.1614583e-06"
         inkscape:transform-center-y="-1.5e-06"
         d="m 297.76562,-48.630859 c -10.66171,-0.01277 -21.32646,-0.03616 -31.98632,0.0039 -1.44986,0.327906 -1.77883,1.97194 -2.53902,3.030698 -5.11823,8.887601 -10.27296,17.757679 -15.36838,26.65623 -0.46309,1.462775 0.83348,2.606253 1.38549,3.826805 5.11888,8.8486871 10.20446,17.7201051 15.34414,26.554588 1.03568,1.135626 2.67871,0.591271 4.01488,0.718788 10.22546,-0.01057 20.45429,0.02113 30.67764,-0.01585 1.50006,-0.332329 1.84761,-2.025609 2.6274,-3.1189807 5.10143,-8.85875047 10.23936,-17.69998 15.31798,-26.5696793 0.46308,-1.462775 -0.83348,-2.606253 -1.38549,-3.826805 -5.12437,-8.857069 -10.21327,-17.737625 -15.3598,-26.580017 -0.67448,-0.773082 -1.79343,-0.754327 -2.72852,-0.679687 z" /><path
         id="path1070"
         style="fill:none;fill-opacity:0.443561;stroke:#afafaf;stroke-width:2.5;stroke-linejoin:bevel;stroke-opacity:0.235294"
         inkscape:transform-center-x="2.1614583e-06"
         inkscape:transform-center-y="-1.5e-06"
         d="m 356.91797,-84.984375 c -10.66172,-0.01278 -21.32647,-0.03616 -31.98633,0.0039 -1.44985,0.327907 -1.77883,1.97194 -2.53901,3.030698 -5.11823,8.887601 -10.27297,17.75768 -15.36839,26.65623 -0.46308,1.462776 0.83348,2.606254 1.38549,3.826805 5.11888,8.848687 10.20447,17.720106 15.34415,26.554589 1.03567,1.135625 2.6787,0.591271 4.01487,0.718788 10.22546,-0.01057 20.45429,0.02113 30.67764,-0.01585 1.50006,-0.332328 1.84761,-2.025608 2.6274,-3.11898 5.10143,-8.858751 10.23936,-17.69998 15.31798,-26.569679 0.46309,-1.462776 -0.83348,-2.606254 -1.38549,-3.826806 -5.12436,-8.857069 -10.21327,-17.737625 -15.3598,-26.580017 -0.67448,-0.773082 -1.79343,-0.754326 -2.72851,-0.679687 z" /><path
         id="path1071"
         style="fill:none;fill-opacity:0.443561;stroke:#afafaf;stroke-width:2.5;stroke-linejoin:bevel;stroke-opacity:0.235294"
         inkscape:transform-center-x="2.1614583e-06"
         inkscape:transform-center-y="-1.5e-06"
         d="m 416.06836,-48.630859 c -10.66172,-0.01277 -21.32647,-0.03616 -31.98633,0.0039 -1.44985,0.327906 -1.77883,1.97194 -2.53901,3.030698 -5.11823,8.887601 -10.27297,17.757679 -15.36839,26.65623 -0.46308,1.462775 0.83348,2.606253 1.38549,3.826805 5.11888,8.8486871 10.20447,17.7201051 15.34415,26.554588 1.03567,1.135626 2.6787,0.591271 4.01487,0.718788 10.22546,-0.01057 20.45429,0.02113 30.67764,-0.01585 1.50006,-0.332329 1.84761,-2.025609 2.62741,-3.1189807 5.10142,-8.85875047 10.23936,-17.69998 15.31797,-26.5696793 0.46309,-1.462775 -0.83348,-2.606253 -1.38549,-3.826805 -5.12436,-8.857069 -10.21327,-17.737625 -15.35979,-26.580017 -0.67449,-0.773082 -1.79344,-0.754327 -2.72852,-0.679687 z" /><path
         id="path1072"
         style="fill:none;fill-opacity:0.443561;stroke:#afafaf;stroke-width:2.5;stroke-linejoin:bevel;stroke-opacity:0.235294"
         inkscape:transform-center-x="2.1614583e-06"
         inkscape:transform-center-y="-1.5e-06"
         d="m 475.21875,-84.984375 c -10.66172,-0.01278 -21.32647,-0.03616 -31.98633,0.0039 -1.44985,0.327907 -1.77883,1.97194 -2.53901,3.030698 -5.11823,8.887601 -10.27297,17.75768 -15.36838,26.65623 -0.46309,1.462776 0.83347,2.606254 1.38548,3.826805 5.11888,8.848687 10.20447,17.720106 15.34415,26.554589 1.03567,1.135625 2.6787,0.591271 4.01487,0.718788 10.22546,-0.01057 20.45429,0.02113 30.67764,-0.01585 1.50006,-0.332328 1.84761,-2.025608 2.62741,-3.11898 5.10142,-8.858751 10.23936,-17.69998 15.31797,-26.569679 0.46309,-1.462776 -0.83348,-2.606254 -1.38549,-3.826806 -5.12436,-8.857069 -10.21327,-17.737625 -15.35979,-26.580017 -0.67449,-0.773082 -1.79344,-0.754326 -2.72852,-0.679687 z" /><path
         id="path1073"
         style="fill:none;fill-opacity:0.443561;stroke:#afafaf;stroke-width:2.5;stroke-linejoin:bevel;stroke-opacity:0.235294"
         inkscape:transform-center-x="2.1614583e-06"
         inkscape:transform-center-y="-1.5e-06"
         d="m 534.36914,-48.630859 c -10.66172,-0.01277 -21.32647,-0.03616 -31.98633,0.0039 -1.44985,0.327906 -1.77883,1.97194 -2.53901,3.030698 -5.11823,8.887601 -10.27297,17.757679 -15.36838,26.65623 -0.46309,1.462775 0.83348,2.606253 1.38548,3.826805 5.11888,8.8486871 10.20447,17.7201051 15.34415,26.554588 1.03567,1.135626 2.6787,0.591271 4.01487,0.718788 10.22546,-0.01057 20.45429,0.02113 30.67764,-0.01585 1.50006,-0.332329 1.84761,-2.025609 2.62741,-3.1189807 5.10142,-8.85875047 10.23936,-17.69998 15.31797,-26.5696793 0.46309,-1.462775 -0.83348,-2.606253 -1.38548,-3.826805 -5.12437,-8.857069 -10.21328,-17.737625 -15.3598,-26.580017 -0.67448,-0.773082 -1.79344,-0.754327 -2.72852,-0.679687 z" /><path
         id="path1074"
         style="fill:none;fill-opacity:0.443561;stroke:#afafaf;stroke-width:2.5;stroke-linejoin:bevel;stroke-opacity:0.235294"
         inkscape:transform-center-x="2.1614583e-06"
         inkscape:transform-center-y="-1.5e-06"
         d="m 593.51953,-84.984375 c -10.66172,-0.01278 -21.32647,-0.03616 -31.98633,0.0039 -1.44985,0.327907 -1.77883,1.97194 -2.53901,3.030698 -5.11823,8.887601 -10.27297,17.75768 -15.36838,26.65623 -0.46309,1.462776 0.83348,2.606254 1.38548,3.826805 5.11888,8.848687 10.20447,17.720106 15.34415,26.554589 1.03568,1.135625 2.6787,0.591271 4.01487,0.718788 10.22546,-0.01057 20.45429,0.02113 30.67765,-0.01585 1.50005,-0.332328 1.8476,-2.025608 2.6274,-3.11898 5.10142,-8.858751 10.23936,-17.69998 15.31797,-26.569679 0.46309,-1.462776 -0.83348,-2.606254 -1.38548,-3.826806 -5.12437,-8.857069 -10.21328,-17.737625 -15.3598,-26.580017 -0.67448,-0.773082 -1.79343,-0.754326 -2.72852,-0.679687 z" /></g></g></svg>
